<svg width="133" height="34" xmlns="http://www.w3.org/2000/svg">
    <path d="m19.014 32.795 6-17.098a.48.48 0 0 1 .907 0l5.55 15.813c.27.77.996 1.285 1.812 1.285h7.36l9.81-31.728h-7.477c-.863 0-1.621.576-1.851 1.409L36.26 20.058a.48.48 0 0 1-.917.027L28.869 1.067h-6.803l-6.474 19.018a.48.48 0 0 1-.918-.027L9.81 2.476a1.921 1.921 0 0 0-1.851-1.41H.482l9.392 30.375a1.921 1.921 0 0 0 1.836 1.354h7.304ZM66.46.225c2.652 0 5.1.429 7.345 1.287 2.245.858 4.176 2.047 5.794 3.567a16.316 16.316 0 0 1 3.782 5.34c.904 2.04 1.356 4.242 1.356 6.605 0 2.364-.452 4.566-1.356 6.606a16.316 16.316 0 0 1-3.782 5.34c-1.618 1.52-3.549 2.709-5.794 3.567-2.244.858-4.693 1.287-7.345 1.287-2.682 0-5.138-.429-7.368-1.287-2.23-.858-4.147-2.047-5.75-3.567a16.473 16.473 0 0 1-3.76-5.34c-.904-2.04-1.356-4.242-1.356-6.606 0-2.363.452-4.565 1.356-6.606a16.473 16.473 0 0 1 3.76-5.34c1.603-1.519 3.52-2.708 5.75-3.566C61.322.654 63.778.224 66.46.224Zm33.22.842c.816 0 1.543.515 1.813 1.285l5.55 15.812a.48.48 0 0 0 .906 0l6-17.097h7.304c.843 0 1.587.549 1.836 1.353l9.393 30.375h-7.478a1.921 1.921 0 0 1-1.851-1.409l-4.864-17.582a.48.48 0 0 0-.918-.027l-6.474 19.018h-6.803L97.62 13.777a.48.48 0 0 0-.917.027l-4.864 17.582a1.921 1.921 0 0 1-1.851 1.409h-7.478l9.812-31.728ZM61.966 13.492h-5.32a.778.778 0 0 0-.556.2c-.142.134-.213.354-.213.66 0 .166.024.323.073.472.037.112.076.207.117.283l.042.071h1.83v4.576c0 .204.025.37.073.495a.639.639 0 0 0 .22.295c.098.07.218.12.36.147.142.028.307.042.494.042s.376-.012.568-.036c.143-.017.258-.035.344-.053l.077-.018v-5.448h1.354a.778.778 0 0 0 .555-.2c.143-.134.214-.354.214-.66a1.51 1.51 0 0 0-.073-.472 1.757 1.757 0 0 0-.117-.283l-.042-.071Zm6.684-.07c-.179 0-.366.013-.561.04-.147.021-.263.038-.35.052l-.077.013v2.76h-2.343V14.4c0-.204-.025-.37-.073-.495a.639.639 0 0 0-.22-.295.894.894 0 0 0-.36-.148 2.627 2.627 0 0 0-.494-.04c-.18 0-.366.013-.561.04-.147.021-.264.038-.35.052l-.078.013v6.227c0 .204.025.37.074.495a.639.639 0 0 0 .22.295c.097.07.217.12.36.147.142.028.306.042.493.042.188 0 .377-.012.568-.036.143-.017.258-.035.344-.053l.077-.018v-2.712h2.343v1.84c0 .204.024.37.073.495a.639.639 0 0 0 .22.295c.097.07.217.12.36.147.142.028.307.042.494.042s.376-.012.567-.036c.144-.017.258-.035.345-.053l.076-.018V14.4c0-.204-.024-.37-.073-.495a.639.639 0 0 0-.22-.295.894.894 0 0 0-.36-.148 2.627 2.627 0 0 0-.494-.04Zm7.747.105H72.37c-.35 0-.626.099-.83.295a1.013 1.013 0 0 0-.299.661l-.006.141v4.988c0 .338.102.606.305.802.174.169.403.265.684.289l.146.006h3.563c.22 0 .397-.065.53-.195.135-.13.202-.343.202-.642 0-.157-.022-.307-.067-.448a1.662 1.662 0 0 0-.098-.247l-.054-.095H73.31v-1.239h2.245c.22 0 .394-.062.524-.188s.196-.338.196-.637c0-.157-.023-.305-.067-.442a1.662 1.662 0 0 0-.098-.241l-.055-.095H73.31v-1.097h2.574c.22 0 .397-.063.531-.189s.201-.338.201-.637c0-.157-.022-.306-.067-.448a1.662 1.662 0 0 0-.097-.246l-.055-.096Z" fill="#FFF" fill-rule="nonzero"/>
</svg>