<svg xmlns="http://www.w3.org/2000/svg" xmlns:xlink="http://www.w3.org/1999/xlink"><symbol id="wb-logo" viewBox="0 0 31 26"><path fill-rule="evenodd" d="M8.071.304c-.67-.567-3.782-.11-5.079.778-1.296.889-1.946 1.486-2.33 6.055-.385 4.568.026 13.553.782 15.724.756 2.17 2.317 3.083 4.063 1.806 1.747-1.277 3.665-3.29 4.859-5.018.795-1.153 1.76-2.856 2.892-5.11.194 4.065.722 6.839 1.582 8.322 1.29 2.225 3.272 3.224 5.765 2.515 2.492-.71 6.308-4.372 7.49-7.975 1.181-3.604 2.76-10.29 2.178-12.476-.582-2.186-1.145-3.178-1.764-3.178-.618 0-3.3 3.166-3.3 4.452s.399 6.27 0 8.34c-.016.088-.043.182-.059.282-.459 2.887-2.996 6.685-4.545 5.484-1.55-1.201-.745-8.207 0-11.794C21.349 4.925 23.52.78 22.284.304c-1.237-.476-4.656-.037-5.733 1.103s-2.854 4.34-4.33 7.856c-1.474 3.518-4.058 8.581-4.815 8.138-.757-.444-.853-4.599-.427-8.537C7.406 4.925 8.741.87 8.071.304Z"/></symbol><symbol id="wb-social-ig" viewBox="0 0 14 15"><g transform="translate(0 .636)"><path d="M6.75 3.298c-1.905 0-3.484 1.58-3.484 3.547 0 1.968 1.552 3.547 3.484 3.547s3.484-1.607 3.484-3.547c0-1.94-1.579-3.547-3.484-3.547Zm0 5.82c-1.225 0-2.232-1.026-2.232-2.273S5.525 4.573 6.75 4.573c1.225 0 2.232 1.025 2.232 2.272 0 1.247-1.007 2.272-2.232 2.272Z"/><circle cx="10.37" cy="3.215" r="1"/><path d="M12.411 1.136C11.704.388 10.697 0 9.553 0H3.947C1.579 0 0 1.607 0 4.018V9.7c0 1.192.381 2.217 1.143 2.966.735.72 1.715 1.08 2.83 1.08h5.553c1.17 0 2.15-.388 2.858-1.08.735-.72 1.116-1.746 1.116-2.938v-5.71c0-1.164-.381-2.161-1.089-2.882Zm-.109 8.591c0 .86-.299 1.552-.789 2.023-.49.471-1.17.72-1.987.72H3.974c-.817 0-1.497-.249-1.987-.72-.49-.499-.735-1.191-.735-2.05V4.017c0-.831.245-1.524.735-2.023.463-.47 1.17-.72 1.987-.72H9.58c.816 0 1.497.25 1.987.748.462.499.734 1.192.734 1.995v5.71Z"/></g></symbol><symbol id="wb-social-tt" viewBox="0 0 12 14"><path fill-rule="evenodd" d="M11.342 3.264c-.63-.087-1.173-.432-1.63-.95-.544-.604-.859-1.41-.83-2.187h-2.26v9.064a1.929 1.929 0 0 1-1.945 1.928c-.63 0-1.202-.316-1.574-.805A1.926 1.926 0 0 1 2.76 9.19a1.922 1.922 0 0 1 2.489-1.84V5.048a3.498 3.498 0 0 0-.572-.058H4.59A4.195 4.195 0 0 0 .5 9.191c0 1.094.43 2.1 1.116 2.849a4.244 4.244 0 0 0 3.06 1.324c2.318 0 4.206-1.87 4.206-4.173V4.472A4.15 4.15 0 0 0 12 5.537V3.264a1.273 1.273 0 0 1-.658 0"/></symbol><symbol id="wb-social-tt-color" viewBox="0 0 256 256"><g fill="none" stroke-miterlimit="10" stroke-width="0"><path fill="#00f2ea" d="M103.137 100.987v-9.863a76.128 76.128 0 0 0-10.332-.753c-42.282 0-76.682 34.406-76.682 76.688 0 25.936 12.962 48.897 32.736 62.78a76.376 76.376 0 0 1-20.592-52.209c0-41.68 33.423-75.67 74.87-76.643"/><path fill="#00f2ea" d="M104.947 212.648c18.866 0 34.254-15.008 34.956-33.711l.065-166.962h30.502a57.768 57.768 0 0 1-.983-10.571h-41.661l-.07 166.967c-.695 18.698-16.09 33.7-34.951 33.7a34.758 34.758 0 0 1-16.248-4.02 34.967 34.967 0 0 0 28.39 14.597M227.446 68.65v-9.28a57.595 57.595 0 0 1-31.562-9.382 57.976 57.976 0 0 0 31.567 18.66"/><path fill="#ff004f" d="M195.884 49.98a57.71 57.71 0 0 1-14.255-37.997h-11.162a58.067 58.067 0 0 0 25.417 37.997m-103.08 82.052c-19.332.023-34.998 15.688-35.02 35.021a35.04 35.04 0 0 0 18.768 31 34.783 34.783 0 0 1-6.626-20.423c.02-19.333 15.685-35.004 35.02-35.027 3.609 0 7.068.596 10.333 1.622v-42.532a76.128 76.128 0 0 0-10.332-.753c-.607 0-1.206.033-1.807.045v32.669a34.503 34.503 0 0 0-10.335-1.622"/><path fill="#ff004f" d="M227.446 68.65v32.38c-21.606 0-41.616-6.91-57.962-18.64v84.666c0 42.282-34.394 76.682-76.677 76.682-16.34 0-31.491-5.156-43.945-13.9a76.458 76.458 0 0 0 56.085 24.471c42.282 0 76.682-34.4 76.682-76.676V92.968a99.079 99.079 0 0 0 57.962 18.638V69.934a57.89 57.89 0 0 1-12.148-1.293"/><path fill="#000" d="M169.481 167.053V82.388a99.06 99.06 0 0 0 57.962 18.639V68.65a57.974 57.974 0 0 1-31.562-18.67 58.067 58.067 0 0 1-25.416-37.997h-30.5l-.065 166.962c-.7 18.698-16.09 33.706-34.956 33.706a34.974 34.974 0 0 1-28.387-14.595 35.045 35.045 0 0 1-18.773-31c.022-19.333 15.688-34.998 35.02-35.02 3.603 0 7.062.59 10.333 1.62v-32.669c-41.447.973-74.87 34.962-74.87 76.643 0 20.156 7.832 38.506 20.592 52.21a76.22 76.22 0 0 0 43.946 13.895c42.285 0 76.676-34.4 76.676-76.682"/></g></symbol><symbol id="wb-social-mail" viewBox="0 0 16 13"><g fill="none" fill-rule="evenodd" stroke-width="1.3"><path d="M14 .795c.232 0 .443.099.596.255.157.16.254.38.254.623v9.163a.888.888 0 0 1-.254.624.834.834 0 0 1-.596.254H2a.834.834 0 0 1-.596-.254.888.888 0 0 1-.254-.624V1.673c0-.243.097-.464.254-.623A.834.834 0 0 1 2 .795Z"/><path stroke-linecap="round" stroke-linejoin="round" d="M3.238 4.048 8 7.442m4.762-3.394L8 7.442"/></g></symbol><symbol id="wb-social-tw" viewBox="0 0 256 209"><g><path d="M256,25.4500259 C246.580841,29.6272672 236.458451,32.4504868 225.834156,33.7202333 C236.678503,27.2198053 245.00583,16.9269929 248.927437,4.66307685 C238.779765,10.6812633 227.539325,15.0523376 215.57599,17.408298 C205.994835,7.2006971 192.34506,0.822 177.239197,0.822 C148.232605,0.822 124.716076,24.3375931 124.716076,53.3423116 C124.716076,57.4586875 125.181462,61.4673784 126.076652,65.3112644 C82.4258385,63.1210453 43.7257252,42.211429 17.821398,10.4359288 C13.3005011,18.1929938 10.710443,27.2151234 10.710443,36.8402889 C10.710443,55.061526 19.9835254,71.1374907 34.0762135,80.5557137 C25.4660961,80.2832239 17.3681846,77.9207088 10.2862577,73.9869292 C10.2825122,74.2060448 10.2825122,74.4260967 10.2825122,74.647085 C10.2825122,100.094453 28.3867003,121.322443 52.413563,126.14673 C48.0059695,127.347184 43.3661509,127.988612 38.5755734,127.988612 C35.1914554,127.988612 31.9009766,127.659938 28.694773,127.046602 C35.3777973,147.913145 54.7742053,163.097665 77.7569918,163.52185 C59.7820257,177.607983 37.1354036,186.004604 12.5289147,186.004604 C8.28987161,186.004604 4.10888474,185.75646 0,185.271409 C23.2431033,200.173139 50.8507261,208.867532 80.5109185,208.867532 C177.116529,208.867532 229.943977,128.836982 229.943977,59.4326002 C229.943977,57.1552968 229.893412,54.8901664 229.792282,52.6381454 C240.053257,45.2331635 248.958338,35.9825545 256,25.4500259"></path></g></symbol><symbol id="wb-icon-search" viewBox="0 0 14 15"><g fill="none" fill-rule="evenodd" stroke-width="1.3" transform="translate(0 .127)"><path stroke-linecap="round" d="m11.25 10.436 3 2.037"/><ellipse cx="6.3" cy="6.618" rx="5.65" ry="5.968"/></g></symbol><symbol id="wb-icon-hamburger" viewBox="0 0 31 19"><path fill-rule="evenodd" d="M.873 0h25.223v3.519H.873zm0 15.481h25.223V19H.873zm0-7.74H31v3.519H.873z"/></symbol><symbol id="wb-icon-quote" viewBox="0 0 28 25"><g stroke="none" stroke-width="1" fill-rule="evenodd"><g id="Webboh-Foglia-DESK" transform="translate(-334.000000, -3499.000000)" fill-rule="nonzero"><path d="M346,3523.8 L346,3512.10108 L340.26087,3512.10108 C340.26087,3509.63513 340.57971,3507.6853 341.217391,3506.25161 C341.855072,3504.81792 343.246377,3504.04373 345.391304,3503.92903 L345.391304,3503.92903 L344.26087,3499.8 C340.434783,3499.8 337.826087,3501.04731 336.434783,3503.54194 C335.043478,3506.03656 334.26087,3509.69247 334.086957,3514.50968 C334.028986,3515.88602 334,3517.37706 334,3518.9828 L334,3518.9828 L334,3523.8 L346,3523.8 Z M362,3523.8 L362,3512.10108 L356.26087,3512.10108 C356.26087,3509.63513 356.57971,3507.6853 357.217391,3506.25161 C357.855072,3504.81792 359.246377,3504.04373 361.391304,3503.92903 L361.391304,3503.92903 L360.26087,3499.8 C356.434783,3499.8 353.826087,3501.04731 352.434783,3503.54194 C351.043478,3506.03656 350.26087,3509.69247 350.086957,3514.50968 C350.028986,3515.88602 350,3517.37706 350,3518.9828 L350,3518.9828 L350,3523.8 L362,3523.8 Z" id="“" transform="translate(348.000000, 3511.800000) scale(-1, -1) translate(-348.000000, -3511.800000) "></path></g></g></symbol><symbol id="wb-icon-arrow" viewBox="0 0 9 14"><path d="m.5 13.818 8-5.404v-3.01L.5 0v3.217l5.351 3.679L.5 10.602z"/></symbol><symbol id="wb-icon-roundarrow" viewBox="0 0 50 50"><path fill-rule="evenodd" d="M25 0C11.193 0 0 11.193 0 25s11.193 25 25 25 25-11.193 25-25S38.807 0 25 0Zm4.928 34.47-8.077-9.1a.578.578 0 0 1 .009-.747l8.006-8.95a1.79 1.79 0 0 0-.095-2.456l-.029-.029a1.617 1.617 0 0 0-2.353.082L18.32 23.51c-.726.82-.73 2.159 0 2.982l9.068 10.239a1.704 1.704 0 0 0 2.397.142 1.697 1.697 0 0 0 .142-2.403Z"/></symbol></svg>