<svg width="282" height="315" viewBox="0 0 282 315" fill="none" xmlns="http://www.w3.org/2000/svg">
<path d="M230.148 70.0027C220.253 29.8133 183.993 -5.7617e-06 140.751 -5.7617e-06C97.5093 -5.7617e-06 61.2467 29.8133 51.356 70.0027C20.9347 85.032 0 116.36 0 152.589C0 203.444 41.2253 244.668 92.08 244.668C105.475 244.668 118.195 241.799 129.673 236.651L130.227 227.328L116.184 210.915L88.1333 178.129L130.799 202.845L134.119 200.773L140.751 135.049L147.385 200.773L150.707 202.845L193.368 178.129L165.317 210.912L151.273 227.328L151.827 236.651C163.305 241.799 176.027 244.668 189.421 244.668C240.276 244.668 281.5 203.444 281.5 152.589C281.5 116.36 260.569 85.032 230.148 70.0027Z" fill="#D0C408"/>
<path d="M206.528 112.247C199.248 82.6767 172.568 60.7407 140.751 60.7407C108.934 60.7407 82.2525 82.6767 74.9751 112.247C52.5911 123.306 37.1885 146.357 37.1885 173.014C37.1885 210.431 67.5218 240.765 104.939 240.765C114.795 240.765 124.154 238.653 132.6 234.865L133.007 228.005L122.675 215.929L102.035 191.806L133.427 209.991L135.871 208.467L140.751 160.109L145.632 208.467L148.076 209.991L179.466 191.806L158.827 215.927L148.494 228.005L148.9 234.865C157.347 238.653 166.706 240.765 176.562 240.765C213.98 240.765 244.312 210.431 244.312 173.014C244.312 146.357 228.911 123.306 206.528 112.247Z" fill="#A9AC3F"/>
<path d="M165.318 210.913L193.368 178.129L150.707 202.845L147.767 204.547L147.386 200.773L140.751 135.05L134.119 200.773L133.736 204.547L130.798 202.845L88.1338 178.129L116.184 210.914L130.227 227.327L129.674 235.722L124.966 314.126H156.536L151.827 235.722L151.274 226.863L165.318 210.913Z" fill="#754C24"/>
</svg>
