<svg width="1123" height="269" viewBox="0 0 1123 269" fill="none" xmlns="http://www.w3.org/2000/svg">
<rect x="470" y="28" width="10" height="222" fill="#44434D"/>
<rect x="784" y="28" width="10" height="220" fill="#44434D"/>
<rect x="603" y="139" width="5" height="61" fill="#44434D"/>
<rect x="695" y="139" width="5" height="61" fill="#44434D"/>
<rect x="470" y="18" width="324" height="10" fill="#44434D"/>
<rect x="465" y="139" width="324" height="10" fill="#44434D"/>
<rect x="603" y="196" width="183" height="4" fill="#44434D"/>
<rect x="536" width="191" height="18" fill="#44434D"/>
<rect x="563" y="28" width="138" height="28" fill="#44434D"/>
<rect x="705" y="33" width="75" height="102" fill="#44434D"/>
<rect x="709" y="37" width="67" height="94" fill="white"/>
<rect x="574" y="33" width="116" height="17" fill="#19191A"/>
<rect x="460" y="43" width="30" height="191" fill="#44434D"/>
<path d="M584.934 42.2402L583.164 41.7129L583.434 40.8281L585.203 41.4844L585.15 39.4688H586.047L585.988 41.5137L587.729 40.8691L587.998 41.7598L586.199 42.293L587.359 43.8809L586.633 44.4316L585.543 42.7441L584.488 44.3906L583.756 43.8574L584.934 42.2402ZM590.102 42.2402L588.332 41.7129L588.602 40.8281L590.371 41.4844L590.318 39.4688H591.215L591.156 41.5137L592.896 40.8691L593.166 41.7598L591.367 42.293L592.527 43.8809L591.801 44.4316L590.711 42.7441L589.656 44.3906L588.924 43.8574L590.102 42.2402ZM595.27 42.2402L593.5 41.7129L593.77 40.8281L595.539 41.4844L595.486 39.4688H596.383L596.324 41.5137L598.064 40.8691L598.334 41.7598L596.535 42.293L597.695 43.8809L596.969 44.4316L595.879 42.7441L594.824 44.3906L594.092 43.8574L595.27 42.2402ZM621.273 42.2402L619.504 41.7129L619.773 40.8281L621.543 41.4844L621.49 39.4688H622.387L622.328 41.5137L624.068 40.8691L624.338 41.7598L622.539 42.293L623.699 43.8809L622.973 44.4316L621.883 42.7441L620.828 44.3906L620.096 43.8574L621.273 42.2402ZM626.441 42.2402L624.672 41.7129L624.941 40.8281L626.711 41.4844L626.658 39.4688H627.555L627.496 41.5137L629.236 40.8691L629.506 41.7598L627.707 42.293L628.867 43.8809L628.141 44.4316L627.051 42.7441L625.996 44.3906L625.264 43.8574L626.441 42.2402ZM631.609 42.2402L629.84 41.7129L630.109 40.8281L631.879 41.4844L631.826 39.4688H632.723L632.664 41.5137L634.404 40.8691L634.674 41.7598L632.875 42.293L634.035 43.8809L633.309 44.4316L632.219 42.7441L631.164 44.3906L630.432 43.8574L631.609 42.2402ZM636.777 42.2402L635.008 41.7129L635.277 40.8281L637.047 41.4844L636.994 39.4688H637.891L637.832 41.5137L639.572 40.8691L639.842 41.7598L638.043 42.293L639.203 43.8809L638.477 44.4316L637.387 42.7441L636.332 44.3906L635.6 43.8574L636.777 42.2402ZM641.945 42.2402L640.176 41.7129L640.445 40.8281L642.215 41.4844L642.162 39.4688H643.059L643 41.5137L644.74 40.8691L645.01 41.7598L643.211 42.293L644.371 43.8809L643.645 44.4316L642.555 42.7441L641.5 44.3906L640.768 43.8574L641.945 42.2402ZM647.113 42.2402L645.344 41.7129L645.613 40.8281L647.383 41.4844L647.33 39.4688H648.227L648.168 41.5137L649.908 40.8691L650.178 41.7598L648.379 42.293L649.539 43.8809L648.812 44.4316L647.723 42.7441L646.668 44.3906L645.936 43.8574L647.113 42.2402ZM652.281 42.2402L650.512 41.7129L650.781 40.8281L652.551 41.4844L652.498 39.4688H653.395L653.336 41.5137L655.076 40.8691L655.346 41.7598L653.547 42.293L654.707 43.8809L653.98 44.4316L652.891 42.7441L651.836 44.3906L651.104 43.8574L652.281 42.2402ZM657.449 42.2402L655.68 41.7129L655.949 40.8281L657.719 41.4844L657.666 39.4688H658.562L658.504 41.5137L660.244 40.8691L660.514 41.7598L658.715 42.293L659.875 43.8809L659.148 44.4316L658.059 42.7441L657.004 44.3906L656.271 43.8574L657.449 42.2402ZM662.617 42.2402L660.848 41.7129L661.117 40.8281L662.887 41.4844L662.834 39.4688H663.73L663.672 41.5137L665.412 40.8691L665.682 41.7598L663.883 42.293L665.043 43.8809L664.316 44.4316L663.227 42.7441L662.172 44.3906L661.439 43.8574L662.617 42.2402ZM667.785 42.2402L666.016 41.7129L666.285 40.8281L668.055 41.4844L668.002 39.4688H668.898L668.84 41.5137L670.58 40.8691L670.85 41.7598L669.051 42.293L670.211 43.8809L669.484 44.4316L668.395 42.7441L667.34 44.3906L666.607 43.8574L667.785 42.2402ZM672.953 42.2402L671.184 41.7129L671.453 40.8281L673.223 41.4844L673.17 39.4688H674.066L674.008 41.5137L675.748 40.8691L676.018 41.7598L674.219 42.293L675.379 43.8809L674.652 44.4316L673.562 42.7441L672.508 44.3906L671.775 43.8574L672.953 42.2402ZM678.121 42.2402L676.352 41.7129L676.621 40.8281L678.391 41.4844L678.338 39.4688H679.234L679.176 41.5137L680.916 40.8691L681.186 41.7598L679.387 42.293L680.547 43.8809L679.82 44.4316L678.73 42.7441L677.676 44.3906L676.943 43.8574L678.121 42.2402ZM683.289 42.2402L681.52 41.7129L681.789 40.8281L683.559 41.4844L683.506 39.4688H684.402L684.344 41.5137L686.084 40.8691L686.354 41.7598L684.555 42.293L685.715 43.8809L684.988 44.4316L683.898 42.7441L682.844 44.3906L682.111 43.8574L683.289 42.2402Z" fill="#CE7C00"/>
<path d="M547.934 12.2402L546.164 11.7129L546.434 10.8281L548.203 11.4844L548.15 9.46875H549.047L548.988 11.5137L550.729 10.8691L550.998 11.7598L549.199 12.293L550.359 13.8809L549.633 14.4316L548.543 12.7441L547.488 14.3906L546.756 13.8574L547.934 12.2402ZM553.102 12.2402L551.332 11.7129L551.602 10.8281L553.371 11.4844L553.318 9.46875H554.215L554.156 11.5137L555.896 10.8691L556.166 11.7598L554.367 12.293L555.527 13.8809L554.801 14.4316L553.711 12.7441L552.656 14.3906L551.924 13.8574L553.102 12.2402ZM558.27 12.2402L556.5 11.7129L556.77 10.8281L558.539 11.4844L558.486 9.46875H559.383L559.324 11.5137L561.064 10.8691L561.334 11.7598L559.535 12.293L560.695 13.8809L559.969 14.4316L558.879 12.7441L557.824 14.3906L557.092 13.8574L558.27 12.2402ZM563.438 12.2402L561.668 11.7129L561.938 10.8281L563.707 11.4844L563.654 9.46875H564.551L564.492 11.5137L566.232 10.8691L566.502 11.7598L564.703 12.293L565.863 13.8809L565.137 14.4316L564.047 12.7441L562.992 14.3906L562.26 13.8574L563.438 12.2402ZM568.605 12.2402L566.836 11.7129L567.105 10.8281L568.875 11.4844L568.822 9.46875H569.719L569.66 11.5137L571.4 10.8691L571.67 11.7598L569.871 12.293L571.031 13.8809L570.305 14.4316L569.215 12.7441L568.16 14.3906L567.428 13.8574L568.605 12.2402ZM573.773 12.2402L572.004 11.7129L572.273 10.8281L574.043 11.4844L573.99 9.46875H574.887L574.828 11.5137L576.568 10.8691L576.838 11.7598L575.039 12.293L576.199 13.8809L575.473 14.4316L574.383 12.7441L573.328 14.3906L572.596 13.8574L573.773 12.2402ZM578.941 12.2402L577.172 11.7129L577.441 10.8281L579.211 11.4844L579.158 9.46875H580.055L579.996 11.5137L581.736 10.8691L582.006 11.7598L580.207 12.293L581.367 13.8809L580.641 14.4316L579.551 12.7441L578.496 14.3906L577.764 13.8574L578.941 12.2402ZM584.109 12.2402L582.34 11.7129L582.609 10.8281L584.379 11.4844L584.326 9.46875H585.223L585.164 11.5137L586.904 10.8691L587.174 11.7598L585.375 12.293L586.535 13.8809L585.809 14.4316L584.719 12.7441L583.664 14.3906L582.932 13.8574L584.109 12.2402ZM589.277 12.2402L587.508 11.7129L587.777 10.8281L589.547 11.4844L589.494 9.46875H590.391L590.332 11.5137L592.072 10.8691L592.342 11.7598L590.543 12.293L591.703 13.8809L590.977 14.4316L589.887 12.7441L588.832 14.3906L588.1 13.8574L589.277 12.2402ZM594.445 12.2402L592.676 11.7129L592.945 10.8281L594.715 11.4844L594.662 9.46875H595.559L595.5 11.5137L597.24 10.8691L597.51 11.7598L595.711 12.293L596.871 13.8809L596.145 14.4316L595.055 12.7441L594 14.3906L593.268 13.8574L594.445 12.2402ZM599.613 12.2402L597.844 11.7129L598.113 10.8281L599.883 11.4844L599.83 9.46875H600.727L600.668 11.5137L602.408 10.8691L602.678 11.7598L600.879 12.293L602.039 13.8809L601.312 14.4316L600.223 12.7441L599.168 14.3906L598.436 13.8574L599.613 12.2402ZM604.781 12.2402L603.012 11.7129L603.281 10.8281L605.051 11.4844L604.998 9.46875H605.895L605.836 11.5137L607.576 10.8691L607.846 11.7598L606.047 12.293L607.207 13.8809L606.48 14.4316L605.391 12.7441L604.336 14.3906L603.604 13.8574L604.781 12.2402ZM609.949 12.2402L608.18 11.7129L608.449 10.8281L610.219 11.4844L610.166 9.46875H611.062L611.004 11.5137L612.744 10.8691L613.014 11.7598L611.215 12.293L612.375 13.8809L611.648 14.4316L610.559 12.7441L609.504 14.3906L608.771 13.8574L609.949 12.2402ZM615.117 12.2402L613.348 11.7129L613.617 10.8281L615.387 11.4844L615.334 9.46875H616.23L616.172 11.5137L617.912 10.8691L618.182 11.7598L616.383 12.293L617.543 13.8809L616.816 14.4316L615.727 12.7441L614.672 14.3906L613.939 13.8574L615.117 12.2402ZM620.285 12.2402L618.516 11.7129L618.785 10.8281L620.555 11.4844L620.502 9.46875H621.398L621.34 11.5137L623.08 10.8691L623.35 11.7598L621.551 12.293L622.711 13.8809L621.984 14.4316L620.895 12.7441L619.84 14.3906L619.107 13.8574L620.285 12.2402ZM625.453 12.2402L623.684 11.7129L623.953 10.8281L625.723 11.4844L625.67 9.46875H626.566L626.508 11.5137L628.248 10.8691L628.518 11.7598L626.719 12.293L627.879 13.8809L627.152 14.4316L626.062 12.7441L625.008 14.3906L624.275 13.8574L625.453 12.2402ZM630.621 12.2402L628.852 11.7129L629.121 10.8281L630.891 11.4844L630.838 9.46875H631.734L631.676 11.5137L633.416 10.8691L633.686 11.7598L631.887 12.293L633.047 13.8809L632.32 14.4316L631.23 12.7441L630.176 14.3906L629.443 13.8574L630.621 12.2402ZM642.885 14.8184H640.025V13.9336H642.885V14.8184ZM651.012 12.2402L649.242 11.7129L649.512 10.8281L651.281 11.4844L651.229 9.46875H652.125L652.066 11.5137L653.807 10.8691L654.076 11.7598L652.277 12.293L653.438 13.8809L652.711 14.4316L651.621 12.7441L650.566 14.3906L649.834 13.8574L651.012 12.2402ZM656.18 12.2402L654.41 11.7129L654.68 10.8281L656.449 11.4844L656.396 9.46875H657.293L657.234 11.5137L658.975 10.8691L659.244 11.7598L657.445 12.293L658.605 13.8809L657.879 14.4316L656.789 12.7441L655.734 14.3906L655.002 13.8574L656.18 12.2402ZM661.348 12.2402L659.578 11.7129L659.848 10.8281L661.617 11.4844L661.564 9.46875H662.461L662.402 11.5137L664.143 10.8691L664.412 11.7598L662.613 12.293L663.773 13.8809L663.047 14.4316L661.957 12.7441L660.902 14.3906L660.17 13.8574L661.348 12.2402ZM666.516 12.2402L664.746 11.7129L665.016 10.8281L666.785 11.4844L666.732 9.46875H667.629L667.57 11.5137L669.311 10.8691L669.58 11.7598L667.781 12.293L668.941 13.8809L668.215 14.4316L667.125 12.7441L666.07 14.3906L665.338 13.8574L666.516 12.2402ZM671.684 12.2402L669.914 11.7129L670.184 10.8281L671.953 11.4844L671.9 9.46875H672.797L672.738 11.5137L674.479 10.8691L674.748 11.7598L672.949 12.293L674.109 13.8809L673.383 14.4316L672.293 12.7441L671.238 14.3906L670.506 13.8574L671.684 12.2402ZM676.852 12.2402L675.082 11.7129L675.352 10.8281L677.121 11.4844L677.068 9.46875H677.965L677.906 11.5137L679.646 10.8691L679.916 11.7598L678.117 12.293L679.277 13.8809L678.551 14.4316L677.461 12.7441L676.406 14.3906L675.674 13.8574L676.852 12.2402ZM682.02 12.2402L680.25 11.7129L680.52 10.8281L682.289 11.4844L682.236 9.46875H683.133L683.074 11.5137L684.814 10.8691L685.084 11.7598L683.285 12.293L684.445 13.8809L683.719 14.4316L682.629 12.7441L681.574 14.3906L680.842 13.8574L682.02 12.2402ZM687.188 12.2402L685.418 11.7129L685.688 10.8281L687.457 11.4844L687.404 9.46875H688.301L688.242 11.5137L689.982 10.8691L690.252 11.7598L688.453 12.293L689.613 13.8809L688.887 14.4316L687.797 12.7441L686.742 14.3906L686.01 13.8574L687.188 12.2402ZM692.355 12.2402L690.586 11.7129L690.855 10.8281L692.625 11.4844L692.572 9.46875H693.469L693.41 11.5137L695.15 10.8691L695.42 11.7598L693.621 12.293L694.781 13.8809L694.055 14.4316L692.965 12.7441L691.91 14.3906L691.178 13.8574L692.355 12.2402ZM697.523 12.2402L695.754 11.7129L696.023 10.8281L697.793 11.4844L697.74 9.46875H698.637L698.578 11.5137L700.318 10.8691L700.588 11.7598L698.789 12.293L699.949 13.8809L699.223 14.4316L698.133 12.7441L697.078 14.3906L696.346 13.8574L697.523 12.2402ZM702.691 12.2402L700.922 11.7129L701.191 10.8281L702.961 11.4844L702.908 9.46875H703.805L703.746 11.5137L705.486 10.8691L705.756 11.7598L703.957 12.293L705.117 13.8809L704.391 14.4316L703.301 12.7441L702.246 14.3906L701.514 13.8574L702.691 12.2402ZM707.859 12.2402L706.09 11.7129L706.359 10.8281L708.129 11.4844L708.076 9.46875H708.973L708.914 11.5137L710.654 10.8691L710.924 11.7598L709.125 12.293L710.285 13.8809L709.559 14.4316L708.469 12.7441L707.414 14.3906L706.682 13.8574L707.859 12.2402ZM713.027 12.2402L711.258 11.7129L711.527 10.8281L713.297 11.4844L713.244 9.46875H714.141L714.082 11.5137L715.822 10.8691L716.092 11.7598L714.293 12.293L715.453 13.8809L714.727 14.4316L713.637 12.7441L712.582 14.3906L711.85 13.8574L713.027 12.2402Z" fill="white"/>
<path d="M55 137C49.4772 137 45 141.477 45 147V258H56V153C56 150.239 58.2386 148 61 148H150C152.761 148 155 150.239 155 153V258H166V147C166 141.477 161.523 137 156 137H55Z" fill="#C4C4C4"/>
<path d="M45 187H166V197H45V187Z" fill="#C4C4C4"/>
<path d="M191 137C185.477 137 181 141.477 181 147V258H192V153C192 150.239 194.239 148 197 148H286C288.761 148 291 150.239 291 153V258H302V147C302 141.477 297.523 137 292 137H191Z" fill="#C4C4C4"/>
<path d="M181 187H302V197H181V187Z" fill="#C4C4C4"/>
<path d="M826 137C820.477 137 816 141.477 816 147V258H827V153C827 150.239 829.239 148 832 148H921C923.761 148 926 150.239 926 153V258H937V147C937 141.477 932.523 137 927 137H826Z" fill="#C4C4C4"/>
<path d="M816 187H937V197H816V187Z" fill="#C4C4C4"/>
<path d="M962 139C956.477 139 952 143.477 952 149V260H963V155C963 152.239 965.239 150 968 150H1057C1059.76 150 1062 152.239 1062 155V260H1073V149C1073 143.477 1068.52 139 1063 139H962Z" fill="#C4C4C4"/>
<path d="M952 189H1073V199H952V189Z" fill="#C4C4C4"/>
<path d="M327 137C321.477 137 317 141.477 317 147V258H328V153C328 150.239 330.239 148 333 148H422C424.761 148 427 150.239 427 153V258H438V147C438 141.477 433.523 137 428 137H327Z" fill="#C4C4C4"/>
<path d="M317 187H438V197H317V187Z" fill="#C4C4C4"/>
<rect y="248" width="1125" height="21" fill="#A5A5A5"/>
</svg>
