<svg width="281" height="63" viewBox="0 0 281 63" fill="none" xmlns="http://www.w3.org/2000/svg">
<path d="M20.0995 62.5923C20.2572 58.5747 20.2572 54.6069 19.7788 50.6817C19.3021 46.7673 18.3437 42.9056 16.6985 39.312C15.0656 35.7173 12.7322 32.4247 9.85644 29.6363C6.98615 26.8383 3.60825 24.5426 0 22.6916C3.73634 24.266 7.31504 26.3127 10.4707 28.955C13.6295 31.5851 16.3306 34.8281 18.3365 38.4853C20.3564 42.1384 21.6835 46.1591 22.4959 50.2437C23.312 54.3324 23.6218 58.4982 23.7689 62.5855L20.0995 62.5923Z" fill="#5A9441"/>
<path d="M26.9624 62.5747C27.1625 58.131 28.1322 53.8578 29.6193 49.7756C31.1194 45.7039 33.2334 41.8456 35.9858 38.5075C38.732 35.168 42.1296 32.3894 45.9125 30.4134C49.6968 28.4281 53.8218 27.2346 57.9859 26.6644C53.8724 27.5352 49.8938 29.018 46.3678 31.2094C42.8397 33.3941 39.8043 36.2834 37.442 39.6239C35.0738 42.9641 33.3587 46.7266 32.2331 50.6369C31.119 54.5428 30.5156 58.6342 30.6318 62.6032L26.9624 62.5747Z" fill="#5A9441"/>
<path d="M46.9419 62.5854C47.0985 57.5063 47.4539 52.4347 48.0135 47.3899C48.5758 42.3455 49.3484 37.3218 50.4323 32.3603C51.5287 27.4069 52.9162 22.4957 54.915 17.822C56.9173 13.189 59.5429 8.64877 63.4576 5.42071C59.7526 8.87946 57.4626 13.489 55.7685 18.158C54.086 22.865 53.0168 27.7681 52.2354 32.6994C51.4668 37.6374 51.0078 42.6214 50.7567 47.6121C50.5084 52.6042 50.4618 57.6024 50.6113 62.5925L46.9419 62.5854Z" fill="#5A9441"/>
<path d="M108.137 62.6006C108.279 58.073 107.958 53.5035 107.417 48.9426C106.865 44.3837 106.075 39.838 105.07 35.3369C104.061 30.8368 102.841 26.3754 101.315 22.0146C99.7597 17.6779 97.9991 13.349 95.2915 9.56542C98.2474 13.1669 100.317 17.4169 102.17 21.6823C103.998 25.9758 105.526 30.3958 106.846 34.8769C108.163 39.3614 109.268 43.9121 110.137 48.523C110.995 53.1329 111.64 57.8212 111.807 62.5775L108.137 62.6006Z" fill="#5A9441"/>
<path d="M118.328 62.589C118.481 57.7603 118.637 52.9765 118.414 48.2212C118.198 43.4703 117.587 38.7429 116.335 34.1579C115.092 29.5742 113.209 25.1498 110.757 21.0316C108.312 16.9086 105.332 13.0863 102.028 9.56534C105.548 12.8709 108.785 16.5145 111.531 20.5386C114.281 24.5562 116.506 28.9687 118.089 33.619C119.682 38.27 120.626 43.1343 121.158 48.0048C121.696 52.88 121.845 57.764 121.997 62.589H118.328Z" fill="#5A9441"/>
<path d="M124.318 62.5757C124.477 58.4079 125.167 54.2214 126.476 50.253C127.782 46.2846 129.724 42.5044 132.353 39.2685C134.968 36.0269 138.274 33.3778 141.944 31.5495C145.613 29.7039 149.607 28.6687 153.614 28.2188C149.651 28.9704 145.794 30.2992 142.385 32.3541C138.97 34.3926 136.039 37.1484 133.82 40.371C131.588 43.5896 130.053 47.2403 129.12 51.0181C128.184 54.8058 127.84 58.7028 127.987 62.6026L124.318 62.5757Z" fill="#5A9441"/>
<path d="M59.2595 62.5817C59.5775 54.0303 60.888 45.4772 63.5748 37.3675C64.924 33.3196 66.6313 29.3861 68.7864 25.7178C70.9388 22.0534 73.5505 18.6565 76.6383 15.7835C73.7673 18.8729 71.4416 22.4112 69.5933 26.1537C67.744 29.9009 66.3602 33.854 65.3351 37.8852C63.2972 45.961 62.6354 54.314 62.9289 62.5963L59.2595 62.5817Z" fill="#5A9441"/>
<path d="M74.8042 62.582C74.9574 58.1196 75.3747 53.6253 76.1999 49.2108C77.0215 44.7953 78.267 40.4521 79.9913 36.3186C81.7108 32.1834 83.9105 28.2676 86.5042 24.6628C89.0938 21.0532 92.0705 17.7544 95.2921 14.7469C92.2866 17.9705 89.5651 21.448 87.2669 25.1721C84.9647 28.8921 83.0916 32.8544 81.7081 36.9658C80.3195 41.0776 79.4151 45.3297 78.9211 49.6243C78.423 53.9236 78.3211 58.2494 78.4736 62.596L74.8042 62.582Z" fill="#5A9441"/>
<path d="M21.2624 62.6086C21.4126 59.7621 21.1802 56.9516 20.4355 54.2298C19.6958 51.5212 18.4305 48.9353 16.585 46.7873C14.7523 44.6346 12.3118 42.9681 9.55024 42.0701C6.78969 41.1629 3.75733 41.0348 0.817383 41.5176C3.69039 40.7382 6.78459 40.5313 9.78909 41.1837C12.7885 41.8265 15.6408 43.3479 17.91 45.518C20.1936 47.6795 21.909 50.4207 23.0462 53.3579C24.1902 56.2931 24.7769 59.4624 24.9319 62.5699L21.2624 62.6086Z" fill="#64A246"/>
<path d="M26.9624 62.591C27.1119 58.8608 27.2206 55.1608 27.0171 51.4971C26.8153 47.8379 26.2693 44.2113 25.1189 40.7431C23.9803 37.2738 22.2333 33.9917 20.0554 30.9885C17.8806 27.9803 15.3103 25.2384 12.562 22.6916C15.5084 25.0067 18.3121 27.5407 20.7761 30.4208C23.241 33.2938 25.3394 36.545 26.8353 40.0951C28.3439 43.6419 29.2354 47.4367 29.7559 51.2284C30.2798 55.0245 30.4748 58.8282 30.6318 62.5869L26.9624 62.591Z" fill="#64A246"/>
<path d="M39.5701 62.5747C39.7427 59.1 40.4086 55.7347 41.3372 52.4781C42.2773 49.2218 43.5198 46.062 45.1027 43.0813C46.6863 40.1067 48.624 37.301 51.0054 34.9267C53.3752 32.5545 56.2272 30.6441 59.3672 29.6003C56.3369 30.9328 53.7493 33.0543 51.6815 35.5465C49.6045 38.0427 48.006 40.8936 46.7601 43.8692C45.5155 46.8489 44.6145 49.9649 44.0135 53.1199C43.4212 56.2752 43.1005 59.4785 43.2395 62.6032L39.5701 62.5747Z" fill="#64A246"/>
<path d="M80.3306 62.5983C80.4788 58.9982 80.2902 55.3831 79.788 51.7926C79.2818 48.2071 78.4555 44.6539 77.232 41.2304C76.0082 37.8114 74.3835 34.5147 72.2504 31.5425C70.1246 28.5717 67.4751 25.9382 64.3755 23.901C67.6321 25.6742 70.5445 28.114 72.9731 30.9772C75.4099 33.8396 77.372 37.1041 78.9325 40.5404C80.4927 43.9818 81.6577 47.6003 82.4946 51.2941C83.3273 54.988 83.8417 58.7743 84 62.5796L80.3306 62.5983Z" fill="#64A246"/>
<path d="M103.247 62.5781C103.417 57.7742 104.165 53.0271 105.394 48.4223C106.636 43.823 108.399 39.3453 110.847 35.2522C113.286 31.1666 116.458 27.4802 120.311 24.7162C124.155 21.9404 128.639 20.1723 133.234 19.4105C128.695 20.4733 124.41 22.5142 120.87 25.4436C117.318 28.3649 114.525 32.09 112.451 36.1434C110.37 40.2042 108.968 44.5881 108.074 49.0526C107.189 53.5228 106.778 58.0834 106.916 62.5998L103.247 62.5781Z" fill="#64A246"/>
<path d="M116.083 62.5744C116.243 58.2968 116.962 53.9962 118.367 49.9302C119.769 45.8742 121.912 41.9918 124.984 38.9315C128.034 35.8584 132.062 33.8249 136.24 33.1621C140.428 32.469 144.663 32.9528 148.66 34.0043C144.597 33.248 140.38 33.0975 136.425 34.0607C132.469 34.9978 128.906 37.1716 126.323 40.1863C123.72 43.1955 122.016 46.8948 120.997 50.7385C119.979 54.5996 119.605 58.6023 119.752 62.6036L116.083 62.5744Z" fill="#64A246"/>
<path d="M55.2008 62.6049C55.3404 59.0541 54.9796 55.4401 54.3714 51.8512C53.7548 48.2626 52.8649 44.7023 51.7203 41.2211C50.5682 37.745 49.1643 34.3355 47.372 31.1282C45.5655 27.9521 43.3989 24.8664 40.3689 22.6916C43.5749 24.6106 46.051 27.5665 48.1528 30.6461C50.2464 33.7607 51.9656 37.1178 53.4374 40.5742C54.9015 44.037 56.1161 47.6093 57.0617 51.2726C57.9967 54.9314 58.699 58.7014 58.8702 62.573L55.2008 62.6049Z" fill="#64A246"/>
<path d="M35.9434 62.5817C36.2519 54.8658 37.2423 47.0737 39.592 39.6795C40.7612 35.9856 42.2806 32.4117 44.1173 29.0321C45.952 25.6481 48.0949 22.4642 50.3855 19.4108C48.3463 22.6382 46.4746 25.9692 44.9405 29.4371C43.4031 32.9023 42.2062 36.498 41.3608 40.1654C39.6631 47.511 39.3117 55.069 39.6128 62.5963L35.9434 62.5817Z" fill="#6DB14A"/>
<path d="M77.395 62.5727C77.5578 58.5724 78.3508 54.6427 79.4954 50.9003C80.6465 47.1493 82.1581 43.5448 83.9354 40.0976C87.5073 33.2209 92.093 26.8775 97.71 21.6558C92.5313 27.305 88.5351 33.913 85.5982 40.8733C84.1399 44.3602 82.9637 47.9542 82.1564 51.6032C81.3525 55.2557 80.9183 58.9455 81.0644 62.6057L77.395 62.5727Z" fill="#6DB14A"/>
<path d="M97.084 62.5801C97.2532 58.6409 97.8033 54.7642 98.6353 50.9589C99.4749 47.1553 100.619 43.4179 102.159 39.845C103.697 36.2765 105.644 32.8643 108.119 29.8778C110.58 26.8893 113.619 24.3737 117.054 22.6919C113.763 24.6455 111 27.3496 108.847 30.4354C106.682 33.5207 105.075 36.9547 103.871 40.5045C102.666 44.0577 101.856 47.7363 101.344 51.4448C100.839 55.1536 100.614 58.9015 100.753 62.5981L97.084 62.5801Z" fill="#6DB14A"/>
<path d="M113.319 62.5498C113.405 60.5432 113.903 58.5203 114.619 56.7141C115.336 54.8886 116.266 53.1918 117.329 51.6079C119.463 48.445 122.114 45.713 125.09 43.4445C128.07 41.1888 131.412 39.3915 134.989 38.3729C138.55 37.3515 142.392 37.1895 145.897 38.2359C142.314 37.4898 138.608 37.9801 135.275 39.2447C131.926 40.5103 128.893 42.4924 126.257 44.8592C123.628 47.2358 121.368 50.0134 119.673 53.0498C117.999 56.0835 116.849 59.4016 116.988 62.628L113.319 62.5498Z" fill="#6DB14A"/>
<path d="M126.045 62.5542C126.143 60.7259 126.637 59.0203 127.241 57.4584C127.852 55.8843 128.615 54.4098 129.467 53.0035C131.179 50.1957 133.273 47.6713 135.652 45.4771C138.031 43.285 140.714 41.4367 143.61 40.0709C146.504 38.7016 149.614 37.8404 152.751 37.5458C149.656 38.1431 146.701 39.2894 144.041 40.8812C141.377 42.4699 138.999 44.4823 136.957 46.7669C134.916 49.0518 133.193 51.6078 131.882 54.3221C131.231 55.6795 130.677 57.0759 130.284 58.4855C129.889 59.8996 129.646 61.2988 129.714 62.6238L126.045 62.5542Z" fill="#6DB14A"/>
<path d="M25.066 62.6019C25.2149 59.8081 25.0491 57.0007 24.5975 54.2116C24.1422 51.4293 23.4022 48.6776 22.2912 46.0747C21.1782 43.4823 19.6839 41.018 17.6484 39.0297C15.6309 37.0397 13.0056 35.6005 10.1152 35.1272C13.0348 35.291 15.9122 36.4696 18.2528 38.34C20.6111 40.2019 22.4713 42.6448 23.9363 45.2623C25.401 47.8913 26.4903 50.7175 27.286 53.6231C28.077 56.5267 28.5775 59.5417 28.7355 62.5761L25.066 62.6019Z" fill="#77C14F"/>
<path d="M41.5564 62.5618C41.7276 59.8077 42.5465 57.2276 43.5627 54.8594C44.5969 52.4828 45.8693 50.2625 47.298 48.1679C48.7277 46.0753 50.3161 44.1043 52.0679 42.2988C53.8279 40.5171 55.7373 38.8112 57.9855 37.7192C55.8967 39.0749 54.257 40.9605 52.763 42.8972C51.283 44.8559 49.9886 46.9454 48.8728 49.109C47.7584 51.2726 46.8217 53.5187 46.1486 55.8019C45.485 58.0882 45.0794 60.3962 45.2258 62.6162L41.5564 62.5618Z" fill="#77C14F"/>
<path d="M52.2646 62.6072C52.4093 60.1273 52.4249 57.7422 52.2275 55.2983C52.0349 52.8738 51.6479 50.4581 51.0109 48.0974C49.7534 43.3765 47.4213 38.8804 44.0818 35.1271C47.8507 38.4394 50.8318 42.7384 52.7487 47.5096C53.7164 49.892 54.436 52.3801 54.9517 54.9096C55.4722 57.4215 55.7743 60.0458 55.934 62.5709L52.2646 62.6072Z" fill="#77C14F"/>
<path d="M57.5322 62.5727C57.7198 59.1249 58.4632 55.8652 59.4046 52.6918C60.3634 49.5236 61.5869 46.4515 63.0771 43.519C64.57 40.5903 66.3412 37.7974 68.4593 35.2982C70.577 32.8077 73.0657 30.6088 75.9146 29.071C73.2251 30.8721 71.0088 33.2518 69.1857 35.8588C67.3639 38.4753 65.9151 41.3269 64.7494 44.2746C63.5857 47.2251 62.6959 50.2778 62.0728 53.3652C61.4643 56.4486 61.0725 59.5927 61.2016 62.6057L57.5322 62.5727Z" fill="#77C14F"/>
<path d="M64.6802 62.5661C64.8361 60.5785 65.2065 58.5682 65.7419 56.6638C66.2787 54.7503 66.9837 52.8996 67.8488 51.138C69.5754 47.6269 71.9663 44.4229 75.0194 42.1224C72.3795 44.8813 70.6324 48.2928 69.553 51.8165C69.0152 53.5836 68.6455 55.3904 68.441 57.2006C68.2375 59.0197 68.1991 60.8014 68.3496 62.612L64.6802 62.5661Z" fill="#77C14F"/>
<path d="M72.6255 62.5565C72.7284 60.7921 73.1508 59.2095 73.6074 57.6846C74.0783 56.1605 74.6348 54.6897 75.2447 53.2491C76.4695 50.3713 77.9091 47.6108 79.5495 44.9776C81.1936 42.3502 83.0398 39.8391 85.1973 37.6143C87.3483 35.4195 89.8625 33.4166 92.812 32.537C89.9726 33.7095 87.7553 35.8911 85.8856 38.2208C84.0173 40.5787 82.4806 43.1816 81.1514 45.8712C79.8281 48.5634 78.7123 51.3583 77.8279 54.1987C77.3879 55.6189 77.0064 57.0523 76.7179 58.4804C76.439 59.907 76.2283 61.332 76.2939 62.6214L72.6255 62.5565Z" fill="#77C14F"/>
<path d="M81.9715 62.5857C82.1471 58.5402 82.3792 54.5871 82.422 50.6044C82.474 46.6299 82.3798 42.655 82.0442 38.6965C81.7071 34.7403 81.1356 30.7964 80.1779 26.9336C79.2218 23.0746 77.8722 19.2873 75.9146 15.7834C78.1342 19.1276 79.7933 22.8456 81.0592 26.6781C82.3285 30.5161 83.2157 34.478 83.8649 38.4712C84.5129 42.4668 84.9175 46.4994 85.1734 50.5347C85.438 54.564 85.5101 58.6254 85.6409 62.5925L81.9715 62.5857Z" fill="#77C14F"/>
<path d="M91.5371 62.5966C91.6418 58.5358 91.5755 54.3004 91.7848 50.1172C91.9768 45.9229 92.3624 41.7197 93.1292 37.5736C93.9076 33.4381 95.0533 29.3277 96.9573 25.5529C98.8375 21.7945 101.604 18.3836 105.222 16.2897C101.769 18.649 99.3445 22.1682 97.7904 25.9372C96.218 29.7238 95.4036 33.7775 94.9442 37.8438C94.4968 41.9192 94.422 46.0316 94.5369 50.1424C94.6344 54.2684 95.0023 58.3354 95.2065 62.5817L91.5371 62.5966Z" fill="#77C14F"/>
<path d="M100.798 62.585C101.119 57.121 101.832 51.6886 103.128 46.3863C103.784 43.7399 104.594 41.1244 105.675 38.6214C106.758 36.1296 108.117 33.7173 109.972 31.7572C108.354 33.9144 107.311 36.4041 106.536 38.9381C105.767 41.4812 105.273 44.097 104.93 46.7254C104.264 51.9899 104.176 57.3174 104.467 62.5928L100.798 62.585Z" fill="#77C14F"/>
<path d="M109.26 62.5801C109.411 59.0768 109.985 55.5287 111.139 52.1824C112.286 48.8334 114.034 45.696 116.278 43.0157C118.503 40.32 121.257 38.1146 124.109 36.2976L132.538 30.6379L124.654 37.0349C121.98 39.1023 119.595 41.4157 117.737 44.128C115.871 46.8199 114.544 49.8295 113.778 52.9655C113.006 56.107 112.776 59.3449 112.93 62.5981L109.26 62.5801Z" fill="#77C14F"/>
<path d="M118.328 62.5946C118.628 58.2182 118.742 53.8519 118.292 49.5176C118.06 47.3557 117.683 45.2043 117.025 43.1277C116.366 41.0596 115.416 39.0475 113.962 37.3603C115.635 38.8298 116.906 40.7552 117.878 42.7897C118.852 44.8333 119.551 47.0013 120.098 49.1955C121.181 53.5913 121.686 58.1108 121.997 62.5834L118.328 62.5946Z" fill="#77C14F"/>
<path d="M121.1 62.5817C121.255 60.3098 121.53 58.0062 122.028 55.7481C122.528 53.4904 123.25 51.2514 124.356 49.1887C125.451 47.1294 126.978 45.2689 128.868 43.9425C130.753 42.6062 132.939 41.837 135.132 41.5057C133.001 42.1346 131.009 43.1821 129.445 44.655C127.874 46.1231 126.752 47.9703 126.025 49.9494C125.293 51.9319 124.919 54.0381 124.749 56.1616C124.58 58.2916 124.618 60.4321 124.769 62.5967L121.1 62.5817Z" fill="#77C14F"/>
<path d="M132.317 62.5907C132.475 59.5967 132.558 56.6585 132.343 53.7345C132.134 50.8166 131.629 47.9225 130.666 45.1647C129.708 42.4103 128.276 39.8002 126.361 37.5385C124.455 35.2695 122.094 33.3591 119.491 31.8342C122.233 33.0873 124.822 34.7674 127.031 36.9123C129.249 39.0463 131.049 41.6451 132.365 44.4699C133.687 47.2967 134.539 50.3325 135.074 53.392C135.615 56.4529 135.838 59.5552 135.987 62.5873L132.317 62.5907Z" fill="#77C14F"/>
<path d="M95.8746 62.5976C96.0129 59.2782 95.8532 55.8948 95.509 52.538C95.1546 49.1798 94.5981 45.8339 93.7555 42.5582C92.9115 39.286 91.7879 36.0702 90.1918 33.0806C88.5986 30.107 86.4829 27.3298 83.6357 25.3786C86.6477 27.0665 89.077 29.7061 90.9797 32.6111C92.8915 35.5306 94.3423 38.7353 95.5093 42.0211C96.6764 45.312 97.5561 48.6997 98.2301 52.1286C98.8937 55.5612 99.3738 59.0322 99.544 62.5803L95.8746 62.5976Z" fill="#77C14F"/>
<path d="M68.9325 62.59C69.0962 58.5058 69.1554 54.4891 68.7928 50.4847C68.4408 46.4867 67.6883 42.5207 66.4284 38.695C65.1717 34.871 63.4121 31.1945 61.1859 27.7928C58.9666 24.386 56.2931 21.2579 53.3103 18.4402C56.4935 21.0272 59.4202 23.9685 61.9348 27.2628C64.4551 30.5506 66.5504 34.1915 68.1483 38.0563C69.7503 41.9207 70.8457 46.0012 71.5231 50.1371C72.2118 54.2717 72.4602 58.4745 72.6019 62.588L68.9325 62.59Z" fill="#77C14F"/>
<path d="M37.9348 62.5784C38.1095 57.9189 38.9177 53.5323 39.1566 49.1487C39.4359 44.7648 39.2544 40.3543 38.6755 35.9616C37.5091 27.1686 35.0034 18.5261 32.0784 10.0722C35.5721 18.3117 38.6799 26.7779 40.4854 35.6616C41.3827 40.0978 41.8862 44.6557 41.9076 49.2214C41.964 53.7929 41.4608 58.2988 41.6042 62.5998L37.9348 62.5784Z" fill="#77C14F"/>
<path d="M23.1626 62.5801C23.3559 57.0454 24.0898 51.6276 25.1145 46.2617C26.1549 40.903 27.5513 35.6136 29.3928 30.4799C31.2452 25.3549 33.5491 20.3703 36.5437 15.8165C39.5268 11.2763 43.2611 7.16416 47.7955 4.21165C43.4364 7.41864 39.9998 11.6796 37.3235 16.2993C34.64 20.9336 32.6637 25.9379 31.1361 31.0524C29.6197 36.1756 28.5481 41.4239 27.8295 46.7102C27.1259 51.9914 26.7155 57.3389 26.832 62.5981L23.1626 62.5801Z" fill="#5A9441"/>
<path d="M30.2439 62.5996C30.3856 58.1899 30.0791 53.7489 29.3833 49.3626C28.6766 44.982 27.57 40.6477 25.8678 36.5465C24.1659 32.4602 21.8474 28.574 18.6452 25.4727C15.4705 22.3581 11.3305 20.1969 6.8623 19.4107C11.3675 19.8901 15.7545 21.7883 19.2598 24.7915C22.7916 27.7759 25.4832 31.66 27.5367 35.7847C29.5929 39.9251 31.0434 44.3396 32.0841 48.8339C33.1129 53.3316 33.7479 57.9354 33.9133 62.5786L30.2439 62.5996Z" fill="#6DB14A"/>
<path d="M31.3333 62.5996C31.4465 58.8266 31.2192 54.8347 31.3646 50.8643C31.4886 46.8888 31.899 42.8803 32.8646 38.9927C33.8187 35.1076 35.3588 31.356 37.517 28.0178C39.6741 24.6783 42.4299 21.7757 45.5499 19.4107C42.6225 22.0126 40.1423 25.087 38.3059 28.4857C36.4685 31.8863 35.2824 35.587 34.6609 39.3658C34.0303 43.149 33.9369 46.9995 34.1166 50.846C34.2746 54.7073 34.8019 58.5222 35.0027 62.5782L31.3333 62.5996Z" fill="#77C14F"/>
<path d="M39.5701 62.5966C39.7213 57.9076 39.5416 53.2291 38.949 48.5795C38.3558 43.9353 37.344 39.3346 35.8396 34.8841C34.3365 30.4336 32.3336 26.1366 29.8197 22.1322C27.3106 18.1258 24.2833 14.4254 20.8521 11.1203C24.4882 14.1985 27.7753 17.7211 30.5807 21.6202C33.3902 25.5149 35.7213 29.7721 37.557 34.2403C41.2414 43.1882 42.9331 52.9125 43.2395 62.5817L39.5701 62.5966Z" fill="#5A9441"/>
<path d="M43.7151 62.5757C43.8673 58.8424 44.4636 55.1075 45.4414 51.5271C46.4186 47.9402 47.7749 44.4818 49.44 41.2018C52.7738 34.6403 57.3221 28.7985 62.6486 23.9008C57.754 29.2296 53.7873 35.362 51.1089 41.9638C48.4289 48.562 47.0723 55.6239 47.3845 62.6026L43.7151 62.5757Z" fill="#6DB14A"/>
<path d="M33.5255 62.5959C33.676 57.6599 33.532 52.7473 32.8433 47.8898C32.1641 43.0363 30.927 38.2562 29.0644 33.6976C27.2111 29.136 24.7413 24.8088 21.8242 20.7868C18.9107 16.7589 15.5576 13.0355 11.9575 9.5655C15.7625 12.8092 19.3544 16.3345 22.5506 20.2262C25.748 24.1117 28.5429 28.3695 30.7412 32.9529C32.9479 37.5308 34.5414 42.4206 35.5549 47.4202C36.5796 52.4178 37.0403 57.524 37.1949 62.582L33.5255 62.5959Z" fill="#64A246"/>
<path d="M49.9331 62.5721C50.0874 59.9301 50.5933 57.2443 51.5028 54.7447C52.4076 52.2369 53.7126 49.8932 55.3397 47.8408C58.5967 43.7137 63.075 40.8274 67.83 39.186C63.302 41.3904 59.3642 44.7374 56.8428 48.893C55.5775 50.9618 54.67 53.2127 54.14 55.5312C53.6069 57.8576 53.4517 60.2152 53.6025 62.606L49.9331 62.5721Z" fill="#64A246"/>
<path d="M62.5412 62.5946C62.8297 58.491 63.2748 54.4431 63.1076 50.457C63.0179 48.466 62.7332 46.4886 62.1209 44.5812C61.5162 42.6745 60.5716 40.8537 59.3672 39.194C60.8037 40.6543 62.0442 42.35 62.9707 44.2357C63.905 46.1183 64.523 48.1667 64.928 50.2301C65.7278 54.3762 65.8855 58.5324 66.2106 62.5984L62.5412 62.5946Z" fill="#6DB14A"/>
<path d="M67.0314 62.5927C67.3348 57.1623 67.2318 51.7132 66.0101 46.4354C65.3961 43.807 64.4913 41.233 63.1761 38.8516C61.865 36.4729 60.1234 34.3012 57.9856 32.5368C60.3041 34.0528 62.3287 36.0591 63.9528 38.3633C65.582 40.6679 66.8255 43.2464 67.7703 45.9182C69.6574 51.278 70.3943 56.9791 70.7008 62.5855L67.0314 62.5927Z" fill="#64A246"/>
<path d="M70.8313 62.5916C71.1262 54.151 71.1612 45.7107 69.8718 37.4032C69.2249 33.2571 68.2298 29.1569 66.7787 25.1993C65.3327 21.2415 63.4235 17.4365 61.0945 13.8833C63.6726 17.2588 65.8729 20.9462 67.6277 24.8524C69.388 28.7573 70.7073 32.8681 71.6729 37.0539C73.6031 45.4439 74.1848 54.0674 74.5007 62.5862L70.8313 62.5916Z" fill="#6DB14A"/>
<path d="M87.066 62.6016C87.2176 57.7192 86.7986 52.8471 85.8021 48.0473C84.8083 43.2522 83.2485 38.5561 81.2143 34.0543C77.1433 25.035 71.2237 16.844 64.3755 9.56537C71.6528 16.4136 78.1286 24.2749 82.8622 33.2473C85.2255 37.7264 87.1374 42.4735 88.4777 47.4045C89.8222 52.3289 90.5815 57.4576 90.7354 62.5764L87.066 62.6016Z" fill="#5A9441"/>
<path d="M84.1332 62.4862C84.4951 59.2343 84.5426 55.9668 84.3758 52.665C84.2063 49.3701 83.8196 46.0676 83.2713 42.7828C82.7215 39.498 82.0128 36.2291 81.1678 32.9902C80.316 29.7526 79.3545 26.5354 78.1929 23.3828C79.6372 26.4192 80.8929 29.5481 82.0434 32.7181C83.1887 35.8914 84.2039 39.1181 85.0649 42.3975C85.9248 45.6769 86.6288 49.0099 87.1143 52.3977C87.5985 55.7769 87.8652 59.2418 87.7972 62.692L84.1332 62.4862Z" fill="#6DB14A"/>
<path d="M89.1395 62.5907C89.4402 52.9194 89.4208 43.2403 88.004 33.7012C87.2847 28.9435 86.2087 24.2216 84.4538 19.733C82.7037 15.2621 80.2136 10.9896 76.6387 7.66606C80.4175 10.7565 83.2314 14.9318 85.2968 19.3711C87.371 23.8274 88.7718 28.5739 89.8085 33.3703C91.863 42.9865 92.498 52.8334 92.8089 62.5873L89.1395 62.5907Z" fill="#64A246"/>
<path d="M100.193 62.5996C100.342 57.0364 100.055 51.4844 99.2946 45.9653C98.5376 40.4507 97.3171 34.987 95.6279 29.6578C92.2493 19.0074 87.0041 8.86214 79.9204 0.0664319C87.4712 8.4653 93.3358 18.4046 97.3617 29.0558C101.391 39.7107 103.56 51.1225 103.863 62.5786L100.193 62.5996Z" fill="#5A9441"/>
<path d="M106.505 62.5751C106.66 58.2458 107.385 53.8752 108.799 49.7624C110.2 45.6431 112.297 41.777 114.959 38.3947C117.616 35.0049 120.824 32.1081 124.326 29.7175C127.83 27.3188 131.628 25.4219 135.543 23.9008C131.749 25.7029 128.126 27.8594 124.871 30.4558C121.615 33.0438 118.73 36.0714 116.441 39.4761C114.147 42.8754 112.456 46.6389 111.433 50.5615C110.399 54.4894 110.024 58.5377 110.175 62.6029L106.505 62.5751Z" fill="#6DB14A"/>
<path d="M112.628 62.5817C112.793 57.4191 113.349 52.2884 114.242 47.2256C115.146 42.1652 116.401 37.1599 118.174 32.3298C119.955 27.5144 122.255 22.84 125.406 18.768C128.533 14.7068 132.646 11.3153 137.434 9.56557C132.76 11.6051 128.953 15.1764 126.147 19.3092C123.32 23.4567 121.363 28.1273 119.914 32.9122C118.474 37.7099 117.546 42.6538 116.964 47.6262C116.393 52.602 116.155 57.6127 116.298 62.5963L112.628 62.5817Z" fill="#5A9441"/>
<path d="M121.5 62.5528C121.575 60.5663 121.995 58.4886 122.695 56.6125C123.395 54.717 124.368 52.9529 125.536 51.3571C127.878 48.1657 130.974 45.6406 134.42 43.9109C137.866 42.1832 141.7 41.255 145.504 41.3518C149.307 41.4317 153.033 42.5991 156.15 44.6268C152.873 42.862 149.15 42.0463 145.518 42.2685C141.883 42.4768 138.361 43.6571 135.306 45.5173C132.252 47.3775 129.638 49.925 127.818 52.8962C125.993 55.8759 125.008 59.2317 125.168 62.6252L121.5 62.5528Z" fill="#64A246"/>
<path d="M128.982 62.5512C129.061 60.5157 129.532 58.3388 130.431 56.4396C131.319 54.5172 132.613 52.8198 134.133 51.4353C137.2 48.657 141.055 47.1298 144.904 46.4863C148.775 45.8401 152.701 46.0514 156.445 46.8526C160.194 47.6598 163.775 49.058 167.086 50.8879C163.639 49.3308 159.992 48.2449 156.289 47.7563C152.591 47.2715 148.821 47.3901 145.278 48.2823C141.751 49.164 138.426 50.8648 136.061 53.3994C134.885 54.6623 133.963 56.1175 133.39 57.6868C132.806 59.2694 132.58 60.8853 132.65 62.627L128.982 62.5512Z" fill="#64A246"/>
<path d="M93.457 62.5877C93.6069 58.0508 93.8199 53.4512 94.4471 48.8821C95.0709 44.3174 96.1177 39.7718 97.827 35.4734C99.5248 31.1762 101.906 27.1561 104.875 23.6675C107.834 20.1672 111.356 17.2086 115.153 14.7467C111.529 17.4597 108.25 20.6259 105.593 24.2372C102.926 27.839 100.902 31.8669 99.5533 36.0942C98.1946 40.3235 97.4883 44.7306 97.1845 49.1651C96.8781 53.6068 96.9705 58.0757 97.1264 62.5907L93.457 62.5877Z" fill="#64A246"/>
<path d="M133.419 62.5923C133.577 58.5747 133.577 54.6069 133.098 50.6817C132.622 46.7673 131.663 42.9056 130.018 39.312C128.385 35.7173 126.052 32.4247 123.176 29.6363C120.306 26.8383 116.928 24.5426 113.319 22.6916C117.056 24.266 120.635 26.3127 123.79 28.955C126.949 31.5851 129.65 34.8281 131.656 38.4853C133.676 42.1384 135.003 46.1591 135.816 50.2437C136.631 54.3324 136.941 58.4982 137.089 62.5855L133.419 62.5923Z" fill="#5A9441"/>
<path d="M140.282 62.5747C140.482 58.131 141.452 53.8578 142.939 49.7756C144.439 45.7039 146.553 41.8456 149.305 38.5075C152.051 35.168 155.449 32.3894 159.232 30.4134C163.016 28.4281 167.141 27.2346 171.305 26.6644C167.192 27.5352 163.214 29.018 159.687 31.2094C156.159 33.3941 153.124 36.2834 150.761 39.6239C148.394 42.9641 146.678 46.7266 145.553 50.6369C144.438 54.5428 143.835 58.6342 143.951 62.6032L140.282 62.5747Z" fill="#5A9441"/>
<path d="M160.262 62.5854C160.418 57.5063 160.773 52.4347 161.333 47.3899C161.895 42.3455 162.668 37.3218 163.752 32.3603C164.848 27.4069 166.236 22.4957 168.235 17.822C170.237 13.189 172.863 8.64877 176.777 5.42071C173.072 8.87946 170.782 13.489 169.088 18.158C167.406 22.865 166.337 27.7681 165.555 32.6994C164.787 37.6374 164.327 42.6214 164.076 47.6121C163.828 52.6042 163.782 57.6024 163.931 62.5925L160.262 62.5854Z" fill="#5A9441"/>
<path d="M221.457 62.6006C221.598 58.073 221.277 53.5035 220.737 48.9426C220.185 44.3837 219.395 39.838 218.389 35.3369C217.38 30.8368 216.16 26.3754 214.635 22.0146C213.079 17.6779 211.318 13.349 208.611 9.56542C211.567 13.1669 213.636 17.4169 215.49 21.6823C217.318 25.9758 218.846 30.3958 220.165 34.8769C221.482 39.3614 222.587 43.9121 223.457 48.523C224.314 53.1329 224.96 57.8212 225.127 62.5775L221.457 62.6006Z" fill="#5A9441"/>
<path d="M231.647 62.589C231.801 57.7603 231.956 52.9765 231.733 48.2212C231.517 43.4703 230.906 38.7429 229.654 34.1579C228.411 29.5742 226.528 25.1498 224.076 21.0316C221.631 16.9086 218.651 13.0863 215.347 9.56534C218.867 12.8709 222.104 16.5145 224.85 20.5386C227.6 24.5562 229.825 28.9687 231.408 33.619C233.001 38.27 233.945 43.1343 234.477 48.0048C235.015 52.88 235.164 57.764 235.316 62.589H231.647Z" fill="#5A9441"/>
<path d="M237.637 62.5757C237.796 58.4079 238.487 54.2214 239.796 50.253C241.101 46.2846 243.043 42.5044 245.672 39.2685C248.288 36.0269 251.593 33.3778 255.263 31.5495C258.932 29.7039 262.926 28.6687 266.933 28.2188C262.971 28.9704 259.114 30.2992 255.705 32.3541C252.289 34.3926 249.359 37.1484 247.139 40.371C244.907 43.5896 243.372 47.2403 242.44 51.0181C241.504 54.8058 241.16 58.7028 241.307 62.6026L237.637 62.5757Z" fill="#5A9441"/>
<path d="M172.579 62.5817C172.897 54.0303 174.208 45.4772 176.894 37.3675C178.244 33.3196 179.951 29.3861 182.106 25.7178C184.258 22.0534 186.87 18.6565 189.958 15.7835C187.087 18.8729 184.761 22.4112 182.913 26.1537C181.064 29.9009 179.68 33.854 178.655 37.8852C176.617 45.961 175.955 54.314 176.249 62.5963L172.579 62.5817Z" fill="#5A9441"/>
<path d="M188.124 62.582C188.277 58.1196 188.694 53.6253 189.519 49.2108C190.341 44.7953 191.586 40.4521 193.311 36.3186C195.03 32.1834 197.23 28.2676 199.824 24.6628C202.413 21.0532 205.389 17.7544 208.611 14.7469C205.606 17.9705 202.884 21.448 200.586 25.1721C198.284 28.8921 196.411 32.8544 195.027 36.9658C193.639 41.0776 192.734 45.3297 192.24 49.6243C191.742 53.9236 191.64 58.2494 191.793 62.596L188.124 62.582Z" fill="#5A9441"/>
<path d="M134.582 62.6086C134.732 59.7621 134.499 56.9516 133.755 54.2298C133.015 51.5212 131.75 48.9353 129.904 46.7873C128.072 44.6346 125.631 42.9681 122.87 42.0701C120.109 41.1629 117.076 41.0348 114.137 41.5176C117.01 40.7382 120.104 40.5313 123.108 41.1837C126.107 41.8265 128.96 43.3479 131.229 45.518C133.513 47.6795 135.228 50.4207 136.366 53.3579C137.509 56.2931 138.096 59.4624 138.251 62.5699L134.582 62.6086Z" fill="#64A246"/>
<path d="M140.282 62.591C140.431 58.8608 140.54 55.1608 140.336 51.4971C140.135 47.8379 139.589 44.2113 138.439 40.7431C137.3 37.2738 135.553 33.9917 133.375 30.9885C131.2 27.9803 128.63 25.2384 125.881 22.6916C128.828 25.0067 131.631 27.5407 134.095 30.4208C136.56 33.2938 138.659 36.545 140.155 40.0951C141.664 43.6419 142.555 47.4367 143.076 51.2284C143.599 55.0245 143.794 58.8282 143.951 62.5869L140.282 62.591Z" fill="#64A246"/>
<path d="M152.89 62.5747C153.062 59.1 153.729 55.7347 154.657 52.4781C155.597 49.2218 156.84 46.062 158.423 43.0813C160.006 40.1067 161.944 37.301 164.325 34.9267C166.695 32.5545 169.547 30.6441 172.687 29.6003C169.657 30.9328 167.069 33.0543 165.001 35.5465C162.925 38.0427 161.326 40.8936 160.08 43.8692C158.835 46.8489 157.935 49.9649 157.334 53.1199C156.741 56.2752 156.421 59.4785 156.56 62.6032L152.89 62.5747Z" fill="#64A246"/>
<path d="M193.65 62.5983C193.798 58.9982 193.61 55.3831 193.108 51.7926C192.601 48.2071 191.775 44.6539 190.552 41.2304C189.328 37.8114 187.703 34.5147 185.57 31.5425C183.444 28.5717 180.794 25.9382 177.695 23.901C180.951 25.6742 183.864 28.114 186.292 30.9772C188.729 33.8396 190.691 37.1041 192.252 40.5404C193.812 43.9818 194.977 47.6003 195.814 51.2941C196.647 54.988 197.161 58.7743 197.319 62.5796L193.65 62.5983Z" fill="#64A246"/>
<path d="M216.566 62.5781C216.737 57.7742 217.484 53.0271 218.714 48.4223C219.955 43.823 221.718 39.3453 224.166 35.2522C226.605 31.1666 229.777 27.4802 233.631 24.7162C237.474 21.9404 241.958 20.1723 246.553 19.4105C242.015 20.4733 237.73 22.5142 234.19 25.4436C230.638 28.3649 227.844 32.09 225.77 36.1434C223.689 40.2042 222.288 44.5881 221.393 49.0526C220.508 53.5228 220.098 58.0834 220.235 62.5998L216.566 62.5781Z" fill="#64A246"/>
<path d="M229.402 62.5744C229.562 58.2968 230.282 53.9962 231.686 49.9302C233.088 45.8742 235.232 41.9918 238.304 38.9315C241.353 35.8584 245.382 33.8249 249.56 33.1621C253.747 32.469 257.983 32.9528 261.979 34.0043C257.916 33.248 253.7 33.0975 249.744 34.0607C245.788 34.9978 242.225 37.1716 239.642 40.1863C237.039 43.1955 235.335 46.8948 234.317 50.7385C233.298 54.5996 232.925 58.6023 233.071 62.6036L229.402 62.5744Z" fill="#64A246"/>
<path d="M168.521 62.6049C168.66 59.0541 168.3 55.4401 167.691 51.8512C167.075 48.2626 166.185 44.7023 165.04 41.2211C163.888 37.745 162.484 34.3355 160.692 31.1282C158.885 27.9521 156.719 24.8664 153.688 22.6916C156.894 24.6106 159.371 27.5665 161.472 30.6461C163.566 33.7607 165.285 37.1178 166.757 40.5742C168.221 44.037 169.436 47.6093 170.382 51.2726C171.317 54.9314 172.019 58.7014 172.19 62.573L168.521 62.6049Z" fill="#64A246"/>
<path d="M149.263 62.5817C149.572 54.8658 150.562 47.0737 152.911 39.6795C154.08 35.9856 155.6 32.4117 157.437 29.0321C159.271 25.6481 161.415 22.4642 163.705 19.4108C161.666 22.6382 159.794 25.9692 158.26 29.4371C156.722 32.9023 155.525 36.498 154.681 40.1654C152.983 47.511 152.631 55.069 152.932 62.5963L149.263 62.5817Z" fill="#6DB14A"/>
<path d="M190.714 62.5727C190.877 58.5724 191.67 54.6427 192.815 50.9003C193.966 47.1493 195.478 43.5448 197.255 40.0976C200.827 33.2209 205.412 26.8775 211.029 21.6558C205.851 27.305 201.854 33.913 198.918 40.8733C197.459 44.3602 196.283 47.9542 195.476 51.6032C194.672 55.2557 194.238 58.9455 194.384 62.6057L190.714 62.5727Z" fill="#6DB14A"/>
<path d="M210.403 62.5801C210.572 58.6409 211.123 54.7642 211.954 50.9589C212.794 47.1553 213.938 43.4179 215.478 39.845C217.016 36.2765 218.963 32.8643 221.438 29.8778C223.899 26.8893 226.938 24.3737 230.373 22.6919C227.082 24.6455 224.319 27.3496 222.167 30.4354C220.002 33.5207 218.394 36.9547 217.19 40.5045C215.985 44.0577 215.175 47.7363 214.663 51.4448C214.159 55.1536 213.933 58.9015 214.073 62.5981L210.403 62.5801Z" fill="#6DB14A"/>
<path d="M226.639 62.5498C226.725 60.5432 227.222 58.5203 227.938 56.7141C228.655 54.8886 229.585 53.1918 230.649 51.6079C232.783 48.445 235.433 45.713 238.409 43.4445C241.39 41.1888 244.731 39.3915 248.308 38.3729C251.869 37.3515 255.711 37.1895 259.216 38.2359C255.633 37.4898 251.928 37.9801 248.594 39.2447C245.245 40.5103 242.212 42.4924 239.577 44.8592C236.947 47.2358 234.687 50.0134 232.992 53.0498C231.319 56.0835 230.168 59.4016 230.307 62.628L226.639 62.5498Z" fill="#6DB14A"/>
<path d="M239.365 62.5542C239.462 60.7259 239.956 59.0203 240.561 57.4584C241.172 55.8843 241.935 54.4098 242.787 53.0035C244.498 50.1957 246.592 47.6713 248.972 45.4771C251.351 43.285 254.034 41.4367 256.93 40.0709C259.823 38.7016 262.933 37.8404 266.07 37.5458C262.976 38.1431 260.021 39.2894 257.361 40.8812C254.697 42.4699 252.319 44.4823 250.277 46.7669C248.236 49.0518 246.513 51.6078 245.202 54.3221C244.551 55.6795 243.996 57.0759 243.603 58.4855C243.209 59.8996 242.966 61.2988 243.034 62.6238L239.365 62.5542Z" fill="#6DB14A"/>
<path d="M138.385 62.6019C138.534 59.8081 138.368 57.0007 137.917 54.2116C137.461 51.4293 136.721 48.6776 135.61 46.0747C134.498 43.4823 133.003 41.018 130.968 39.0297C128.95 37.0397 126.325 35.6005 123.435 35.1272C126.354 35.291 129.232 36.4696 131.572 38.34C133.93 40.2019 135.79 42.6448 137.256 45.2623C138.72 47.8913 139.81 50.7175 140.605 53.6231C141.396 56.5267 141.896 59.5417 142.055 62.5761L138.385 62.6019Z" fill="#77C14F"/>
<path d="M154.876 62.5618C155.048 59.8077 155.866 57.2276 156.882 54.8594C157.916 52.4828 159.189 50.2625 160.618 48.1679C162.047 46.0753 163.636 44.1043 165.387 42.2988C167.147 40.5171 169.057 38.8112 171.305 37.7192C169.217 39.0749 167.577 40.9605 166.083 42.8972C164.603 44.8559 163.308 46.9454 162.192 49.109C161.078 51.2726 160.142 53.5187 159.468 55.8019C158.805 58.0882 158.399 60.3962 158.545 62.6162L154.876 62.5618Z" fill="#77C14F"/>
<path d="M165.584 62.6072C165.728 60.1273 165.744 57.7422 165.546 55.2983C165.354 52.8738 164.967 50.4581 164.33 48.0974C163.072 43.3765 160.74 38.8804 157.401 35.1271C161.17 38.4394 164.151 42.7384 166.067 47.5096C167.035 49.892 167.755 52.3801 168.27 54.9096C168.791 57.4215 169.093 60.0458 169.253 62.5709L165.584 62.6072Z" fill="#77C14F"/>
<path d="M170.852 62.5727C171.039 59.1249 171.783 55.8652 172.724 52.6918C173.683 49.5236 174.906 46.4515 176.397 43.519C177.889 40.5903 179.661 37.7974 181.779 35.2982C183.896 32.8077 186.385 30.6088 189.234 29.071C186.545 30.8721 184.328 33.2518 182.505 35.8588C180.684 38.4753 179.235 41.3269 178.069 44.2746C176.905 47.2251 176.015 50.2778 175.392 53.3652C174.784 56.4486 174.392 59.5927 174.521 62.6057L170.852 62.5727Z" fill="#77C14F"/>
<path d="M178 62.5661C178.155 60.5785 178.526 58.5682 179.061 56.6638C179.598 54.7503 180.303 52.8996 181.168 51.138C182.895 47.6269 185.286 44.4229 188.339 42.1224C185.699 44.8813 183.952 48.2928 182.873 51.8165C182.335 53.5836 181.965 55.3904 181.76 57.2006C181.557 59.0197 181.518 60.8014 181.669 62.612L178 62.5661Z" fill="#77C14F"/>
<path d="M185.945 62.5565C186.048 60.7921 186.471 59.2095 186.927 57.6846C187.398 56.1605 187.955 54.6897 188.565 53.2491C189.789 50.3713 191.229 47.6108 192.869 44.9776C194.514 42.3502 196.36 39.8391 198.517 37.6143C200.668 35.4195 203.182 33.4166 206.132 32.537C203.292 33.7095 201.075 35.8911 199.205 38.2208C197.337 40.5787 195.8 43.1816 194.472 45.8712C193.148 48.5634 192.032 51.3583 191.148 54.1987C190.708 55.6189 190.326 57.0523 190.038 58.4804C189.759 59.907 189.548 61.332 189.614 62.6214L185.945 62.5565Z" fill="#77C14F"/>
<path d="M195.291 62.5857C195.466 58.5402 195.699 54.5871 195.741 50.6044C195.793 46.6299 195.699 42.655 195.363 38.6965C195.026 34.7403 194.455 30.7964 193.497 26.9336C192.541 23.0746 191.192 19.2873 189.234 15.7834C191.453 19.1276 193.112 22.8456 194.378 26.6781C195.648 30.5161 196.535 34.478 197.184 38.4712C197.832 42.4668 198.237 46.4994 198.493 50.5347C198.757 54.564 198.829 58.6254 198.96 62.5925L195.291 62.5857Z" fill="#77C14F"/>
<path d="M204.857 62.5966C204.962 58.5358 204.895 54.3004 205.105 50.1172C205.297 45.9229 205.683 41.7197 206.449 37.5736C207.227 33.4381 208.373 29.3277 210.277 25.5529C212.158 21.7945 214.924 18.3836 218.542 16.2897C215.089 18.649 212.665 22.1682 211.111 25.9372C209.538 29.7238 208.723 33.7775 208.264 37.8438C207.817 41.9192 207.742 46.0316 207.857 50.1424C207.955 54.2684 208.322 58.3354 208.526 62.5817L204.857 62.5966Z" fill="#77C14F"/>
<path d="M214.117 62.585C214.438 57.121 215.151 51.6886 216.447 46.3863C217.103 43.7399 217.913 41.1244 218.994 38.6214C220.077 36.1296 221.436 33.7173 223.291 31.7572C221.673 33.9144 220.63 36.4041 219.855 38.9381C219.086 41.4812 218.592 44.097 218.25 46.7254C217.583 51.9899 217.495 57.3174 217.787 62.5928L214.117 62.585Z" fill="#77C14F"/>
<path d="M222.58 62.5801C222.731 59.0768 223.304 55.5287 224.458 52.1824C225.605 48.8334 227.353 45.696 229.598 43.0157C231.822 40.32 234.577 38.1146 237.428 36.2976L245.858 30.6379L237.973 37.0349C235.299 39.1023 232.915 41.4157 231.057 44.128C229.191 46.8199 227.863 49.8295 227.097 52.9655C226.325 56.107 226.096 59.3449 226.249 62.5981L222.58 62.5801Z" fill="#77C14F"/>
<path d="M231.647 62.5946C231.947 58.2182 232.061 53.8519 231.611 49.5176C231.379 47.3557 231.002 45.2043 230.344 43.1277C229.685 41.0596 228.734 39.0475 227.281 37.3603C228.955 38.8298 230.225 40.7552 231.197 42.7897C232.171 44.8333 232.87 47.0013 233.417 49.1955C234.5 53.5913 235.005 58.1108 235.316 62.5834L231.647 62.5946Z" fill="#77C14F"/>
<path d="M234.418 62.5817C234.573 60.3098 234.849 58.0062 235.347 55.7481C235.846 53.4904 236.569 51.2514 237.674 49.1887C238.77 47.1294 240.297 45.2689 242.186 43.9425C244.072 42.6062 246.258 41.837 248.451 41.5057C246.321 42.1346 244.328 43.1821 242.764 44.655C241.193 46.1231 240.071 47.9703 239.345 49.9494C238.612 51.9319 238.238 54.0381 238.068 56.1616C237.9 58.2916 237.937 60.4321 238.088 62.5967L234.418 62.5817Z" fill="#77C14F"/>
<path d="M245.637 62.5907C245.794 59.5967 245.878 56.6585 245.663 53.7345C245.453 50.8166 244.948 47.9225 243.985 45.1647C243.027 42.4103 241.596 39.8002 239.68 37.5385C237.775 35.2695 235.413 33.3591 232.81 31.8342C235.553 33.0873 238.141 34.7674 240.351 36.9123C242.568 39.0463 244.368 41.6451 245.684 44.4699C247.006 47.2967 247.859 50.3325 248.393 53.392C248.934 56.4529 249.158 59.5552 249.306 62.5873L245.637 62.5907Z" fill="#77C14F"/>
<path d="M209.194 62.5976C209.333 59.2782 209.173 55.8948 208.828 52.538C208.474 49.1798 207.918 45.8339 207.075 42.5582C206.231 39.286 205.108 36.0702 203.511 33.0806C201.918 30.107 199.802 27.3298 196.956 25.3786C199.968 27.0665 202.396 29.7061 204.299 32.6111C206.211 35.5306 207.662 38.7353 208.829 42.0211C209.996 45.312 210.876 48.6997 211.55 52.1286C212.213 55.5612 212.693 59.0322 212.863 62.5803L209.194 62.5976Z" fill="#77C14F"/>
<path d="M182.252 62.59C182.416 58.5058 182.475 54.4891 182.113 50.4847C181.76 46.4867 181.008 42.5207 179.748 38.695C178.492 34.871 176.732 31.1945 174.506 27.7928C172.286 24.386 169.613 21.2579 166.63 18.4402C169.813 21.0272 172.74 23.9685 175.254 27.2628C177.775 30.5506 179.87 34.1915 181.468 38.0563C183.07 41.9207 184.165 46.0012 184.843 50.1371C185.531 54.2717 185.78 58.4745 185.922 62.588L182.252 62.59Z" fill="#77C14F"/>
<path d="M151.255 62.5784C151.429 57.9189 152.237 53.5323 152.476 49.1487C152.755 44.7648 152.574 40.3543 151.995 35.9616C150.829 27.1686 148.323 18.5261 145.398 10.0722C148.892 18.3117 151.999 26.7779 153.805 35.6616C154.702 40.0978 155.206 44.6557 155.227 49.2214C155.284 53.7929 154.781 58.2988 154.924 62.5998L151.255 62.5784Z" fill="#77C14F"/>
<path d="M136.482 62.5801C136.675 57.0454 137.409 51.6276 138.434 46.2617C139.474 40.903 140.871 35.6136 142.712 30.4799C144.564 25.3549 146.868 20.3703 149.863 15.8165C152.846 11.2763 156.58 7.16416 161.115 4.21165C156.756 7.41864 153.319 11.6796 150.642 16.2993C147.959 20.9336 145.983 25.9379 144.455 31.0524C142.939 36.1756 141.867 41.4239 141.149 46.7102C140.445 51.9914 140.035 57.3389 140.151 62.5981L136.482 62.5801Z" fill="#5A9441"/>
<path d="M143.563 62.5996C143.705 58.1899 143.398 53.7489 142.703 49.3626C141.996 44.982 140.89 40.6477 139.187 36.5465C137.486 32.4602 135.167 28.574 131.965 25.4727C128.79 22.3581 124.65 20.1969 120.182 19.4107C124.687 19.8901 129.074 21.7883 132.579 24.7915C136.111 27.7759 138.803 31.66 140.856 35.7847C142.913 39.9251 144.363 44.3396 145.403 48.8339C146.432 53.3316 147.068 57.9354 147.233 62.5786L143.563 62.5996Z" fill="#6DB14A"/>
<path d="M144.652 62.5996C144.766 58.8266 144.538 54.8347 144.683 50.8643C144.808 46.8888 145.218 42.8803 146.184 38.9927C147.138 35.1076 148.678 31.356 150.836 28.0178C152.993 24.6783 155.749 21.7757 158.869 19.4107C155.941 22.0126 153.461 25.087 151.625 28.4857C149.787 31.8863 148.601 35.587 147.98 39.3658C147.349 43.149 147.256 46.9995 147.436 50.846C147.594 54.7073 148.121 58.5222 148.322 62.5782L144.652 62.5996Z" fill="#77C14F"/>
<path d="M152.889 62.5966C153.04 57.9076 152.861 53.2291 152.268 48.5795C151.675 43.9353 150.663 39.3346 149.159 34.8841C147.656 30.4336 145.653 26.1366 143.139 22.1322C140.63 18.1258 137.603 14.4254 134.171 11.1203C137.807 14.1985 141.095 17.7211 143.9 21.6202C146.709 25.5149 149.041 29.7721 150.876 34.2403C154.56 43.1882 156.252 52.9125 156.559 62.5817L152.889 62.5966Z" fill="#5A9441"/>
<path d="M157.035 62.5757C157.187 58.8424 157.784 55.1075 158.761 51.5271C159.738 47.9402 161.095 44.4818 162.76 41.2018C166.094 34.6403 170.642 28.7985 175.969 23.9008C171.074 29.2296 167.107 35.362 164.429 41.9638C161.749 48.562 160.392 55.6239 160.705 62.6026L157.035 62.5757Z" fill="#6DB14A"/>
<path d="M146.844 62.5959C146.995 57.6599 146.851 52.7473 146.162 47.8898C145.483 43.0363 144.246 38.2562 142.384 33.6976C140.53 29.136 138.06 24.8088 135.143 20.7868C132.23 16.7589 128.877 13.0355 125.276 9.5655C129.081 12.8092 132.674 16.3345 135.869 20.2262C139.067 24.1117 141.862 28.3695 144.06 32.9529C146.267 37.5308 147.86 42.4206 148.874 47.4202C149.898 52.4178 150.36 57.524 150.514 62.582L146.844 62.5959Z" fill="#64A246"/>
<path d="M163.253 62.5721C163.407 59.9301 163.913 57.2443 164.823 54.7447C165.727 52.2369 167.032 49.8932 168.66 47.8408C171.916 43.7137 176.395 40.8274 181.149 39.186C176.622 41.3904 172.684 44.7374 170.163 48.893C168.897 50.9618 167.99 53.2127 167.46 55.5312C166.927 57.8576 166.771 60.2152 166.922 62.606L163.253 62.5721Z" fill="#64A246"/>
<path d="M175.861 62.5946C176.149 58.491 176.594 54.4431 176.427 50.457C176.337 48.466 176.053 46.4886 175.44 44.5812C174.836 42.6745 173.891 40.8537 172.687 39.194C174.123 40.6543 175.363 42.35 176.29 44.2357C177.225 46.1183 177.842 48.1667 178.248 50.2301C179.048 54.3762 179.205 58.5324 179.53 62.5984L175.861 62.5946Z" fill="#6DB14A"/>
<path d="M180.351 62.5927C180.654 57.1623 180.551 51.7132 179.329 46.4354C178.716 43.807 177.81 41.233 176.495 38.8516C175.184 36.4729 173.443 34.3012 171.305 32.5368C173.623 34.0528 175.648 36.0591 177.272 38.3633C178.901 40.6679 180.145 43.2464 181.089 45.9182C182.977 51.278 183.714 56.9791 184.02 62.5855L180.351 62.5927Z" fill="#64A246"/>
<path d="M184.151 62.5916C184.446 54.151 184.481 45.7107 183.191 37.4032C182.545 33.2571 181.549 29.1569 180.098 25.1993C178.652 21.2415 176.743 17.4365 174.414 13.8833C176.992 17.2588 179.192 20.9462 180.947 24.8524C182.708 28.7573 184.027 32.8681 184.993 37.0539C186.923 45.4439 187.504 54.0674 187.82 62.5862L184.151 62.5916Z" fill="#6DB14A"/>
<path d="M200.386 62.6016C200.537 57.7192 200.118 52.8471 199.121 48.0473C198.128 43.2522 196.568 38.5561 194.534 34.0543C190.463 25.035 184.543 16.844 177.695 9.56537C184.972 16.4136 191.448 24.2749 196.182 33.2473C198.545 37.7264 200.457 42.4735 201.797 47.4045C203.142 52.3289 203.901 57.4576 204.055 62.5764L200.386 62.6016Z" fill="#5A9441"/>
<path d="M197.453 62.4862C197.815 59.2343 197.862 55.9668 197.695 52.665C197.526 49.3701 197.139 46.0676 196.591 42.7828C196.041 39.498 195.333 36.2291 194.487 32.9902C193.636 29.7526 192.674 26.5354 191.513 23.3828C192.957 26.4192 194.213 29.5481 195.363 32.7181C196.508 35.8914 197.523 39.1181 198.385 42.3975C199.244 45.6769 199.948 49.0099 200.434 52.3977C200.918 55.7769 201.185 59.2418 201.117 62.692L197.453 62.4862Z" fill="#6DB14A"/>
<path d="M202.459 62.5907C202.759 52.9194 202.74 43.2403 201.323 33.7012C200.604 28.9435 199.528 24.2216 197.773 19.733C196.023 15.2621 193.533 10.9896 189.958 7.66606C193.737 10.7565 196.551 14.9318 198.616 19.3711C200.691 23.8274 202.091 28.5739 203.128 33.3703C205.182 42.9865 205.817 52.8334 206.128 62.5873L202.459 62.5907Z" fill="#64A246"/>
<path d="M213.512 62.5996C213.661 57.0364 213.374 51.4844 212.614 45.9653C211.857 40.4507 210.636 34.987 208.947 29.6578C205.569 19.0074 200.323 8.86214 193.24 0.0664319C200.79 8.4653 206.655 18.4046 210.681 29.0558C214.71 39.7107 216.88 51.1225 217.182 62.5786L213.512 62.5996Z" fill="#5A9441"/>
<path d="M219.825 62.5751C219.98 58.2458 220.705 53.8752 222.119 49.7624C223.52 45.6431 225.617 41.777 228.278 38.3947C230.936 35.0049 234.144 32.1081 237.647 29.7175C241.15 27.3188 244.948 25.4219 248.862 23.9008C245.069 25.7029 241.446 27.8594 238.191 30.4558C234.935 33.0438 232.05 36.0714 229.761 39.4761C227.466 42.8754 225.775 46.6389 224.752 50.5615C223.719 54.4894 223.344 58.5377 223.495 62.6029L219.825 62.5751Z" fill="#6DB14A"/>
<path d="M225.947 62.5817C226.112 57.4191 226.668 52.2884 227.561 47.2256C228.465 42.1652 229.72 37.1599 231.492 32.3298C233.274 27.5144 235.574 22.84 238.725 18.768C241.851 14.7068 245.966 11.3153 250.753 9.56557C246.079 11.6051 242.271 15.1764 239.466 19.3092C236.639 23.4567 234.682 28.1273 233.232 32.9122C231.793 37.7099 230.865 42.6538 230.283 47.6262C229.712 52.602 229.474 57.6127 229.617 62.5963L225.947 62.5817Z" fill="#5A9441"/>
<path d="M234.82 62.5528C234.895 60.5663 235.315 58.4886 236.015 56.6125C236.714 54.717 237.688 52.9529 238.855 51.3571C241.197 48.1657 244.294 45.6406 247.74 43.9109C251.185 42.1832 255.02 41.255 258.824 41.3518C262.627 41.4317 266.352 42.5991 269.47 44.6268C266.193 42.862 262.47 42.0463 258.838 42.2685C255.202 42.4768 251.68 43.6571 248.626 45.5173C245.571 47.3775 242.958 49.925 241.137 52.8962C239.312 55.8759 238.327 59.2317 238.488 62.6252L234.82 62.5528Z" fill="#64A246"/>
<path d="M242.301 62.5512C242.38 60.5157 242.851 58.3388 243.75 56.4396C244.638 54.5172 245.933 52.8198 247.453 51.4353C250.519 48.657 254.374 47.1298 258.224 46.4863C262.095 45.8401 266.02 46.0514 269.764 46.8526C273.514 47.6598 277.095 49.058 280.405 50.8879C276.958 49.3308 273.312 48.2449 269.608 47.7563C265.91 47.2715 262.14 47.3901 258.598 48.2823C255.07 49.164 251.746 50.8648 249.38 53.3994C248.204 54.6623 247.283 56.1175 246.709 57.6868C246.126 59.2694 245.9 60.8853 245.97 62.627L242.301 62.5512Z" fill="#64A246"/>
<path d="M206.776 62.5877C206.927 58.0508 207.139 53.4512 207.766 48.8821C208.39 44.3174 209.437 39.7718 211.146 35.4734C212.844 31.1762 215.225 27.1561 218.194 23.6675C221.154 20.1672 224.675 17.2086 228.473 14.7467C224.848 17.4597 221.569 20.6259 218.913 24.2372C216.246 27.839 214.222 31.8669 212.873 36.0942C211.514 40.3235 210.808 44.7306 210.504 49.1651C210.197 53.6068 210.29 58.0757 210.446 62.5907L206.776 62.5877Z" fill="#64A246"/>
</svg>
