<svg width="1049" height="458" viewBox="0 0 1049 458" fill="none" xmlns="http://www.w3.org/2000/svg">
<ellipse cx="524.5" cy="448.5" rx="518.5" ry="9.5" fill="url(#paint0_radial)"/>
<path d="M637 400H905L888 437H658L637 400Z" fill="#1C1C1C"/>
<circle cx="866" cy="431" r="16" fill="#464444"/>
<circle cx="732" cy="431" r="16" fill="#464444"/>
<path d="M421 400H153L170 437H400L421 400Z" fill="#1C1C1C"/>
<circle r="16" transform="matrix(-1 0 0 1 192 431)" fill="#464444"/>
<circle r="16" transform="matrix(-1 0 0 1 326 431)" fill="#464444"/>
<path d="M1043 222H6V384H0V400H6V415H140L162.5 402H380L419.5 420H630.5L670 402H887.5L910 415H1043V407H1049V391H1043V222Z" fill="#DF8100"/>
<rect x="6" y="326" width="1037" height="4" fill="#37200C"/>
<rect x="6" y="222" width="1037" height="104" fill="#EAE6DA"/>
<path d="M107.5 195C109.5 195 879 195 941 195C1003 195 1043 222 1043 222H6C6 222 31 195 107.5 195Z" fill="url(#paint1_linear)"/>
<rect x="471" y="248" width="107" height="140" fill="#023950"/>
<path d="M535.5 248H568L520.5 388H482L535.5 248Z" fill="#15536A"/>
<path fill-rule="evenodd" clip-rule="evenodd" d="M587 236H463V399H587V236ZM578 248H471V388H578V248Z" fill="#37200C"/>
<path d="M517 236H525V399H517V236Z" fill="#37200C"/>
<path d="M525 236H533V399H525V236Z" fill="#37200C"/>
<path d="M551 236H559V399H551V236Z" fill="#37200C"/>
<path d="M491 236H499V399H491V236Z" fill="#37200C"/>
<path d="M463 314H587V322H463V314Z" fill="#37200C"/>
<rect x="924.516" y="250.779" width="87.1532" height="137.423" fill="#023950"/>
<path d="M977.052 250.779H1003.52L964.835 388.202H933.476L977.052 250.779Z" fill="#15536A"/>
<path fill-rule="evenodd" clip-rule="evenodd" d="M1019 239H918V399H1019V239ZM1011.67 250.779H924.516V388.202H1011.67V250.779Z" fill="#37200C"/>
<path d="M961.984 239H968.5V399H961.984V239Z" fill="#37200C"/>
<path d="M968.5 239H975.016V399H968.5V239Z" fill="#37200C"/>
<path d="M989.677 239H996.194V399H989.677V239Z" fill="#37200C"/>
<path d="M940.806 239H947.323V399H940.806V239Z" fill="#37200C"/>
<path d="M918 315.564H1019V323.417H918V315.564Z" fill="#37200C"/>
<rect x="36.5161" y="250.779" width="87.1532" height="137.423" fill="#023950"/>
<path d="M89.0524 250.779H115.524L76.8347 388.202H45.4758L89.0524 250.779Z" fill="#15536A"/>
<path fill-rule="evenodd" clip-rule="evenodd" d="M131 239H30L30 399H131V239ZM123.669 250.779H36.5161L36.5161 388.202H123.669V250.779Z" fill="#37200C"/>
<path d="M73.9839 239H80.5V399H73.9839V239Z" fill="#37200C"/>
<path d="M80.5 239H87.0161V399H80.5V239Z" fill="#37200C"/>
<path d="M101.677 239H108.194V399H101.677V239Z" fill="#37200C"/>
<path d="M52.8065 239H59.3226V399H52.8065V239Z" fill="#37200C"/>
<path d="M30 315.564H131V323.417H30V315.564Z" fill="#37200C"/>
<rect x="609" y="236" width="55" height="90" fill="#023950"/>
<path d="M643.215 236H664L633.622 326H609L643.215 236Z" fill="#15536A"/>
<rect x="609" y="268" width="55" height="4" fill="#37200C"/>
<rect x="668" y="236" width="55" height="90" fill="#023950"/>
<path d="M702.215 236H723L692.622 326H668L702.215 236Z" fill="#15536A"/>
<rect x="668" y="268" width="55" height="4" fill="#37200C"/>
<rect x="727" y="236" width="55" height="90" fill="#023950"/>
<path d="M761.215 236H782L751.622 326H727L761.215 236Z" fill="#15536A"/>
<rect x="727" y="268" width="55" height="4" fill="#37200C"/>
<rect x="786" y="236" width="55" height="90" fill="#023950"/>
<path d="M820.215 236H841L810.622 326H786L820.215 236Z" fill="#15536A"/>
<rect x="786" y="268" width="55" height="4" fill="#37200C"/>
<rect x="845" y="236" width="55" height="90" fill="#023950"/>
<path d="M879.215 236H900L869.622 326H845L879.215 236Z" fill="#15536A"/>
<rect x="845" y="268" width="55" height="4" fill="#37200C"/>
<rect x="389" y="236" width="55" height="90" fill="#023950"/>
<path d="M423.215 236H444L413.622 326H389L423.215 236Z" fill="#15536A"/>
<rect x="389" y="268" width="55" height="4" fill="#37200C"/>
<rect x="330" y="236" width="55" height="90" fill="#023950"/>
<path d="M364.215 236H385L354.622 326H330L364.215 236Z" fill="#15536A"/>
<rect x="330" y="268" width="55" height="4" fill="#37200C"/>
<rect x="271" y="236" width="55" height="90" fill="#023950"/>
<path d="M305.215 236H326L295.622 326H271L305.215 236Z" fill="#15536A"/>
<rect x="271" y="268" width="55" height="4" fill="#37200C"/>
<rect x="212" y="236" width="55" height="90" fill="#023950"/>
<path d="M246.215 236H267L236.622 326H212L246.215 236Z" fill="#15536A"/>
<rect x="212" y="268" width="55" height="4" fill="#37200C"/>
<rect x="153" y="236" width="55" height="90" fill="#023950"/>
<path d="M187.215 236H208L177.622 326H153L187.215 236Z" fill="#15536A"/>
<rect x="153" y="268" width="55" height="4" fill="#37200C"/>
<path d="M296.5 0L423.5 78C389.134 110.414 369.866 128.586 335.5 161H387L431.5 96.5L418.5 82.7159L423.5 78L440.5 96.5L406.5 176H296.5L411.5 78L261 0H296.5Z" fill="#B2BBC2"/>
<rect x="271" y="176" width="97" height="19" fill="#111111"/>
<rect x="918" y="400" width="101" height="15" fill="#37200C"/>
<rect x="463" y="420" width="124" height="4" fill="#37200C"/>
<rect x="30" y="400" width="101" height="15" fill="#37200C"/>
<defs>
<radialGradient id="paint0_radial" cx="0" cy="0" r="1" gradientUnits="userSpaceOnUse" gradientTransform="translate(525 448.999) scale(888.5 48493.4)">
<stop/>
<stop offset="1" stop-color="white" stop-opacity="0"/>
</radialGradient>
<linearGradient id="paint1_linear" x1="524.5" y1="222" x2="524.5" y2="195" gradientUnits="userSpaceOnUse">
<stop stop-color="#352F2F"/>
<stop offset="1" stop-color="#777070"/>
</linearGradient>
</defs>
</svg>
