<svg xmlns="http://www.w3.org/2000/svg" xmlns:xlink="http://www.w3.org/1999/xlink"><symbol id="header-search" width="28px" height="28px" viewBox="0 0 28 28"><path d="M19.953953,17.5120951 L26.2876301,23.7786985 C26.6753779,24.16234 26.684414,24.8033675 26.2951189,25.197914 L25.2219,26.2856103 C24.8314901,26.6812866 24.19808,26.6844387 23.804649,26.2951741 L17.3796269,19.938193 C15.8126316,20.9582096 13.9361004,21.5520394 11.9218775,21.5520394 C6.44216631,21.5520394 2,17.1640032 2,11.7760197 C2,6.37686369 6.45350559,2 11.9218775,2 C17.4015887,2 21.843755,6.38803628 21.843755,11.7760197 C21.843755,13.9190174 21.1421485,15.9009628 19.953953,17.5120951 Z M5,11.7760197 C5,15.5015194 8.09359152,18.5520394 11.9218775,18.5520394 C15.747696,18.5520394 18.843755,15.5039006 18.843755,11.7760197 C18.843755,8.05052004 15.7501635,5 11.9218775,5 C8.09605907,5 5,8.0481388 5,11.7760197 Z" id="Combined-Shape"></path></symbol><symbol id="header-menu" width="24px" height="19px" viewBox="0 0 24 19"><g><path fill="#2a3b58" d="M0 1a1 1 0 0 1 1-1h22a1 1 0 0 1 1 1v1a1 1 0 0 1-1 1H1a1 1 0 0 1-1-1zm0 8a1 1 0 0 1 1-1h22a1 1 0 0 1 1 1v1a1 1 0 0 1-1 1H1a1 1 0 0 1-1-1zm0 8a1 1 0 0 1 1-1h22a1 1 0 0 1 1 1v1a1 1 0 0 1-1 1H1a1 1 0 0 1-1-1z"/></g></symbol><symbol id="header-close" width="22px" height="23px" viewBox="0 0 22 23"><g><g transform="rotate(-45 11 11.5)"><path d="M-4 11a1 1 0 0 1 1-1h28a1 1 0 0 1 1 1v1a1 1 0 0 1-1 1H-3a1 1 0 0 1-1-1z"/></g><g transform="rotate(45 11 11.5)"><path d="M-4 11a1 1 0 0 1 1-1h28a1 1 0 0 1 1 1v1a1 1 0 0 1-1 1H-3a1 1 0 0 1-1-1z"/></g></g></symbol><symbol id="logo" width="133px" height="36px" viewBox="0 0 133 36"><g id="Page-1" stroke="none" stroke-width="1" fill="none" fill-rule="evenodd"><g id="Group-12" fill="#FFFFFE"><path d="M28.0997136,13.1852316 C28.8282948,13.1402972 29.5586056,13.1232552 30.2879898,13.0905813 C30.6326358,13.0751332 30.9767257,13.0476698 31.3166767,13.0259076 L31.3166767,0.00529649485 L0.0130778892,0.00529649485 L0.0130778892,3.08511016 C0.105741251,3.09081125 0.176103631,3.09669625 0.246527787,3.09920963 C1.18211887,3.13212882 2.1173393,3.16909394 3.03958685,3.34772803 C4.1464816,3.56210121 4.39673446,3.86260373 4.39673446,4.97302859 C4.39673446,13.309736 4.39685801,21.6464434 4.39593137,29.9831508 C4.39593137,30.1462142 4.38808588,30.3095841 4.37684272,30.472341 C4.33236431,31.1176061 4.14889085,31.3560096 3.53583004,31.5611875 C2.94581153,31.7587026 2.33077391,31.8130775 1.71579806,31.8588701 C1.14567128,31.9013524 0.574432538,31.928877 0.0117806021,31.9625319 L0.0117806021,35.4522109 L19.5567694,35.4522109 L19.5567694,32.0444927 C19.4335271,32.0444927 19.3230106,32.0485999 19.2129266,32.0438183 C18.0527813,31.992999 16.8866437,31.9983322 15.7463902,31.737676 C14.972404,31.5607584 14.7201125,31.2434591 14.6867537,30.4579963 C14.6832943,30.3764033 14.6823677,30.2946264 14.6823677,30.2129721 C14.6821823,26.7291168 14.6817499,23.2452615 14.6841592,19.7614062 C14.6842209,19.6544341 14.6457965,19.5380216 14.7181975,19.446559 C15.1694063,19.446559 15.6105457,19.4494402 16.0516233,19.4460073 C17.7668221,19.432766 19.0173451,20.1793021 19.8390838,21.675378 C20.2577986,22.4374234 20.6362976,23.2162043 20.9706888,24.0163183 C21.05458,24.2170212 21.1624401,24.2966525 21.3826083,24.2936487 C22.1648724,24.2827369 22.9474454,24.2902158 23.7298948,24.2882541 C23.8084733,24.2880702 23.8964418,24.3134492 23.9540166,24.2471818 L23.9540166,11.15074 C23.0863169,11.15074 22.2435127,11.1580963 21.4010174,11.1453454 C21.1998144,11.1423416 21.1235833,11.2114903 21.0555066,11.3919635 C20.6697799,12.4141134 20.2439609,13.4191601 19.6186068,14.3259396 C19.1541162,14.9994037 18.5722521,15.5301566 17.7636098,15.768315 C16.761054,16.0635455 15.7325524,16.0101514 14.6958347,16.0121744 L14.6958347,3.4163863 C15.7564596,3.4163863 16.804544,3.38696133 17.8502809,3.42319082 C19.4730017,3.47940478 21.0264103,3.82196049 22.4353259,4.67172914 C23.9506807,5.58574231 24.9956763,6.92010346 25.8417546,8.42923668 C26.6532386,9.87670006 27.2525852,11.4159326 27.8013376,12.9753948 C27.8564414,13.1320214 27.9120395,13.1968177 28.0997136,13.1852316" id="Fill-2"></path><path d="M107.678095,31.9873224 C106.479958,31.8004738 106.202215,31.4739179 106.202215,30.2679232 C106.202029,23.6481016 106.2024,17.0282187 106.200176,10.4083357 C106.200114,10.2808888 106.24101,10.1442466 106.14118,10.0015968 C101.92265,10.0934272 97.6937412,10.1854416 93.4812029,10.2771494 L93.4812029,13.1360919 C93.8125671,13.1592027 94.1206419,13.1703597 94.4259986,13.2046888 C94.7422895,13.240244 95.0596306,13.2815003 95.3700529,13.3494229 C96.4500753,13.5856809 96.8927591,14.0920356 96.8936239,15.1079328 C96.8975158,19.5722526 96.8953536,24.0366338 96.8952918,28.5008924 C96.8952918,28.5315434 96.8922031,28.5625622 96.8957861,28.5927841 C96.9087589,28.70276 96.850937,28.7548667 96.7545671,28.7971038 C95.7273011,29.2477963 94.6968845,29.652267 93.5393955,29.6588876 C92.0182955,29.6675312 91.0689903,28.967033 90.7172402,27.498543 C90.5904149,26.9691387 90.543033,26.4316426 90.5429713,25.8892423 C90.5423535,20.7200104 90.5428477,15.5508399 90.5410562,10.3816081 C90.5410562,10.2618239 90.5710174,10.1371356 90.5023229,10.0023937 C86.4416908,10.0760788 82.3747577,10.1499477 78.3141873,10.223694 L78.3141873,13.1020693 C78.4791899,13.1020693 78.6310343,13.0994946 78.7828169,13.1024984 C79.4115687,13.1151879 80.0369228,13.1603675 80.6389258,13.3575761 C81.2263497,13.5500031 81.6009568,13.9357155 81.6750875,14.561793 C81.7062224,14.8245335 81.7171567,15.0910134 81.717342,15.3558382 C81.7198748,19.3911052 81.7143768,23.4263722 81.7224694,27.4616392 C81.724508,28.4954365 81.852754,29.5181382 82.1453232,30.5142961 C82.787542,32.701491 84.1031765,34.2920333 86.3265412,35.019627 C87.9637175,35.5554067 89.639627,35.5945174 91.3172045,35.1988741 C93.2420079,34.7449326 94.8276016,33.6912734 96.2690728,32.3925288 C96.4625539,32.2182471 96.6512166,32.0385709 96.9026431,31.8051941 L96.9026431,35.4471473 L109.617416,35.4471473 L109.617416,32.1784008 C109.289078,32.1536348 108.972726,32.1353668 108.657547,32.1044706 C108.330383,32.0723483 108.002787,32.0379579 107.678095,31.9873224" id="Fill-4"></path><path d="M45.1926075,26.5398836 C45.0911102,27.8720378 44.934818,29.1985523 44.4092314,30.4508301 C43.9301001,31.5922738 43.1157127,32.3014769 41.8425798,32.3944107 C40.5246597,32.4905323 39.3727924,32.1625052 38.5744048,31.0256592 C37.9423171,30.1254389 37.6688367,29.0916416 37.481842,28.0333848 C37.144918,26.126524 37.0976597,24.1990658 37.1049492,22.2689103 C37.1127947,20.4625849 37.1506632,18.6579146 37.4163599,16.8662403 C37.5166834,16.1895273 37.6615472,15.5229904 37.9064873,14.8812808 C38.5248608,13.2613135 39.5986439,12.5963092 41.4538261,12.7594339 C43.121396,12.9060683 44.0106554,13.9572141 44.5213541,15.420616 C45.0588016,16.9607067 45.1931635,18.5660228 45.2704447,20.1780822 C45.3722509,22.3000517 45.3539653,24.4218987 45.1926075,26.5398836 M48.7056609,11.2231438 C47.0319135,10.3140348 45.2242984,9.8375342 43.3347689,9.64860137 C40.9477606,9.40982998 38.5855244,9.52477128 36.2817279,10.2344648 C33.1862774,11.1879565 30.8003812,13.0240747 29.2947869,15.9071089 C28.1915369,18.0196379 27.8034009,20.2964564 27.7873393,22.7124917 C27.8028449,23.9615205 27.9105815,25.2619816 28.2153205,26.5390253 C29.1555447,30.479029 31.4545845,33.2798572 35.331496,34.6555972 C38.6625586,35.8375615 42.0900528,35.9455757 45.5066745,35.0844661 C49.5787351,34.058209 52.428813,31.5902508 53.8021458,27.6097878 C54.9375809,24.3189726 54.9516657,20.9682652 53.9392258,17.64355 C53.0781978,14.8161168 51.3339645,12.6507454 48.7056609,11.2231438" id="Fill-6"></path><path d="M129.231006,21.3397494 C128.052946,20.3444497 126.669914,19.7308778 125.225231,19.2324923 C123.727976,18.7160228 122.173579,18.4112291 120.64661,18.004858 C119.773289,17.772462 118.897867,17.5354071 118.132221,17.0315045 C116.806085,16.1585023 116.812818,14.402935 118.141982,13.5311589 C118.784633,13.1097075 119.508519,12.9773564 120.260328,13.0012642 C121.308103,13.0345512 122.239803,13.4236965 123.103178,13.9893302 C124.659922,15.0093346 125.88833,16.3684005 127.056321,17.7868067 C127.174127,17.9298243 127.286929,17.9811341 127.467993,17.9795403 C128.435769,17.970958 129.403545,17.9764138 130.371383,17.9744522 C130.471707,17.974207 130.57827,18.0008121 130.678284,17.9287209 L130.678284,9.73405026 C130.626331,9.71890866 130.597296,9.70315404 130.568262,9.70309273 C129.487251,9.70125367 128.406179,9.70413487 127.32523,9.69658333 C127.169864,9.69549128 127.114637,9.7746935 127.052367,9.88957349 C126.66491,10.6049681 126.240512,10.8008281 125.430943,10.6712969 C124.837774,10.5763401 124.291122,10.3337067 123.720625,10.1675782 C121.49726,9.5201675 119.26815,9.620335 117.043426,10.1437317 C115.136167,10.5924625 113.428196,11.4225532 112.058879,12.8501547 C110.372653,14.6081129 109.751129,16.7268947 109.91749,19.113689 C110.075018,21.3723621 111.203596,22.9958235 113.164971,24.0971757 C114.470536,24.8302866 115.874324,25.3120592 117.303625,25.7306907 C118.780185,26.1631765 120.276328,26.5353411 121.696857,27.1384304 C122.455523,27.4605725 123.200042,27.8142852 123.757628,28.4453895 C124.861249,29.6942344 124.357284,31.4652498 122.756061,31.9221338 C121.433631,32.2994478 120.125101,32.1976251 118.865991,31.6549183 C116.337085,30.5647231 114.517238,28.6950114 113.094979,26.4047678 C113.002501,26.2558652 112.919351,26.2171223 112.762935,26.2181644 C111.949598,26.2236816 111.136261,26.2201261 110.322862,26.2220264 C110.254847,26.2221491 110.176701,26.1948084 110.136732,26.2482024 L110.136732,35.4669233 C111.041744,35.4669233 111.925505,35.4615288 112.809143,35.4710435 C113.013744,35.4731148 113.14026,35.4295904 113.245217,35.2322592 C113.586898,34.589814 114.149303,34.3636095 114.865467,34.4178618 C115.498358,34.4658 116.092577,34.6590853 116.692912,34.8337347 C119.69434,35.7068595 122.678347,35.7114571 125.622695,34.6079594 C129.298712,33.2301964 131.75287,30.1703059 131.57471,26.2462407 C131.485444,24.2787523 130.753094,22.6258045 129.231006,21.3397494" id="Fill-8"></path><path d="M76.4838697,28.7710014 C75.0735951,30.2560429 73.3920022,31.1910214 71.2957716,31.253672 C69.6785488,31.3020393 68.1638118,30.9771999 66.8880844,29.9155715 C65.7119392,28.9368233 65.0946776,27.6285156 64.7220474,26.1882245 C64.3349616,24.6924551 64.2570008,23.1656669 64.2994407,21.6301738 C64.3456488,19.9549121 64.4658641,18.2867002 64.910154,16.6602962 C65.2223678,15.5173813 65.6602948,14.4349714 66.5415234,13.587287 C67.6212987,12.5485855 69.3859797,12.3188256 70.5886266,13.0637065 C70.9224618,13.2704782 71.2062588,13.5272724 71.3682961,13.8975979 C70.8173198,14.4322128 70.4428363,15.0570644 70.1862823,15.7563365 C69.4605428,17.7342463 70.3456633,19.8546833 72.2427912,20.6700616 C73.0995566,21.0381802 74.0038893,21.1656271 74.9271252,21.1176889 C76.622803,21.0297818 77.9533871,20.3043337 78.6486094,18.7273391 C79.4542247,16.900171 79.3438317,15.0799913 78.2814154,13.367458 C77.3255619,11.8268155 75.8753803,10.8852777 74.1791466,10.3506628 C70.5639164,9.21124208 66.9214432,9.1997786 63.3266607,10.410371 C59.703029,11.630649 57.1792497,14.0533663 55.8836923,17.6391669 C54.694389,20.9305338 54.6490457,24.2867583 55.6766206,27.6244083 C56.6798559,30.8829174 58.8242715,33.1645174 61.990455,34.4780972 C64.071983,35.3416588 66.2632862,35.6252419 68.5058013,35.6009663 C72.1304214,35.5617943 75.2664585,34.3744968 77.7862842,31.7306631 C78.5502009,30.9291391 79.2132999,30.0519685 79.7997355,29.0979864 C79.061332,28.5306361 78.339052,27.9756076 77.5989189,27.4069087 C77.2354931,27.8826737 76.8855345,28.3480787 76.4838697,28.7710014" id="Fill-10"></path></g></g></symbol><symbol id="ame-logo" width="242px" height="52px" viewBox="0 0 242 52"><g fill="none" fill-rule="evenodd"><g><g><path fill="#FFF" d="M.002 33.195h.312c3.71-.117 6.937-2.139 8.741-5.12l.055-.08 8.994-15.578 3.009-5.215 3.478-6.015L25.28 0l16.236 28.104c1.857 3.04 5.203 5.071 9.025 5.086l.02.005v.532H27.177v-.197l-.004-.331.18-.004c2.49-.087 4.481-2.132 4.481-4.643 0-.796-.198-1.543-.551-2.197l-2.945-5.093-6.931 12.002-.737 1.262-7.358-12.747-2.39 4.143c-.514.748-.816 1.654-.816 2.63 0 2.352 1.746 4.296 4.012 4.604.1.023.2.037.303.039h.277v.532H.002v-.197L0 33.2l.002-.005zM20.987 8.487l-3.064 5.307 7.046 12.24 3.064-5.306-7.046-12.241z" transform="translate(-67 -116) translate(67 116)"/><g fill="#FFFFFF"><path d="M87.793 13.476c-.032.185-.156.661-.156.661-.657 2.168-2.683 3.775-5.084 3.775h-1.18c-.328 0-.592-.264-.592-.585l.005-14.552c0-.325.264-.667.59-.667h1.083c2.44 0 4.586 1.617 5.224 3.89.038.137.07.277.094.418.25 1.172.381 2.386.381 3.631 0 1.177-.136 2.32-.365 3.43M84.876 1.243l-13.55-.004h-8.24v.665s1.35.024 2.23.085c1.122.074 2.025.868 2.025 1.999v7.028l-8.65-9.782-9.305.002v.662s1.314.011 2.122.094c1.121.114 2.089.865 2.089 1.997v11.462c0 1.455-1.196 2.396-2.594 2.552-.628.071-1.647.089-1.647.089v.675l9.32-.002.003-.675s-.93.018-1.59-.083c-1.41-.215-2.615-1.1-2.615-2.556V4.421l13.75 15.538-.004-15.97c0-1.131.922-1.872 2.047-1.989.496-.051 1.218-.072 1.673-.081.363.009.817.028 1.159.074 1.38.177 2.465 1.198 2.465 2.582v11.133c-.01 1.481-1.072 2.142-2.31 2.321-.752.11-1.941.078-1.941.078v.677l13.535-.002c4.893 0 8.859-3.91 8.859-8.754 0-4.836-3.952-8.772-8.83-8.784M129.412 13.464c-.032.185-.156.661-.156.661-.658 2.168-2.683 3.775-5.084 3.775h-1.182c-.326 0-.59-.262-.59-.585l.005-14.552c0-.325.264-.667.592-.667h1.08c2.443 0 4.585 1.617 5.225 3.89.037.137.069.277.094.418.25 1.172.38 2.386.38 3.631 0 1.177-.136 2.32-.364 3.43zm-30.736-1.173L101.747 6l3.63 6.292h-6.7zM126.495 1.23l-13.553-.002V1.9s1.098-.006 1.775.081c1.38.177 2.464 1.2 2.464 2.582l.001 11.132c-.008 1.188-.694 1.849-1.605 2.157-1.207-.306-2.173-.946-2.726-2.015L103.707 0s-4.616 9.564-7.632 15.648c-.673 1.362-1.811 2.14-3.388 2.383-.468.071-1.212.078-1.212.078v.679h8.862l-.002-.672s-.996-.016-1.636-.088c-.792-.093-2.248-.692-1.483-2.506l1.117-2.348h7.535l1.153 2.013c.161.354.4.693.4 1.12 0 .978-.82 1.582-1.773 1.722-.844.124-2.359.084-2.359.084v.675h14.77v-.016l8.406-.002c4.892 0 8.86-3.91 8.86-8.754 0-4.836-3.952-8.772-8.83-8.786z" transform="translate(-67 -116) translate(67 116) translate(49.559 7.283)"/><path d="M42.972 16.131c-.226.434-.505.929-.792 1.322-.535.727-1.34 1.23-2.298 1.23-.929 0-1.712-.487-2.25-1.16-.323-.403-.607-.931-.846-1.392-.964-1.832-1.51-3.918-1.51-6.131 0-2.207.57-4.377 1.5-6.116.253-.473.467-.872.887-1.44.503-.676 1.31-1.117 2.219-1.117.948 0 1.783.539 2.28 1.205.296.395.576.888.807 1.33.964 1.833 1.511 3.922 1.511 6.138 0 2.213-.545 4.299-1.508 6.131M41.321.526c-.473-.051-.952-.078-1.44-.078-.483 0-.96.027-1.43.076-4.869.415-8.693 4.498-8.693 9.477 0 4.704 3.482 8.586 7.794 9.355.756.135 1.534.206 2.33.206.797 0 1.575-.071 2.332-.206 4.313-.746 7.792-4.651 7.792-9.355 0-4.976-3.819-9.057-8.685-9.475M169.351 9.15c-.622.331-1.658.362-3.097.356l-.002-6.888c.002-.236.191-.45.448-.459l.787.002c.845 0 1.52.152 2.031.454.953.565 1.43 1.69 1.43 3.234 0 1.603-.532 2.722-1.597 3.301zm22.44 8.937s-1.077.016-1.87-.076c-1.181-.137-2.37-.837-2.37-1.967l.002-12.107c.03-1.104.973-1.792 2.068-1.943.804-.111 2.167-.076 2.167-.076v-.675h-13.714v.675s1.272.004 2.096.085c1.13.112 2.118.88 2.118 2l.005 12.04c0 1.13-.92 1.861-2.011 1.968-.204.02-.443.035-.69.044-1.398-.156-2.479-.707-3-2.206-.904-2.604-.055-5.97-5.692-6.008 1.49-.227 3.066-.654 3.929-1.364.87-.71 1.32-1.312 1.288-3.09-.032-1.863-1.69-3.008-2.54-3.439-.88-.448-2.66-.693-4.203-.693H156.74v.676c.007.003 2.07.01 2.625.085 1.129.152 1.597 1.19 1.597 2.128l.001 11.561c.006 1.591-.716 2.201-1.87 2.322-.915.093-2.35.086-2.35.085l-.003.67h13.658v-.678c-1.02 0-1.269.047-2.275-.077-1.078-.133-1.909-.812-1.916-2.037l.016-5.677h1.386c5.155.014.608 8.47 7.345 8.47h5.632v-.021h11.207v-.675z" transform="translate(-67 -116) translate(67 116) translate(49.559 7.283)"/><path d="M26.576 15.593S24.726 4.92 24.6 4.205c-.242-1.384.83-2.098 1.932-2.18.758-.054 1.997-.08 1.997-.08v-.68l-9.183.002-3.498 9.609-3.479-9.602-9.534-.007.002.677s1.26-.01 2.095.053c1.19.09 2.17.936 1.992 2.017-.139.833-2.045 11.703-2.045 11.703-.208 1.398-1.365 2.132-2.81 2.279-.788.081-2.069.1-2.069.1v.674h9.86v-.668s-1.196-.014-2.073-.108c-1.202-.128-2.159-1.113-2.001-2.219.023-.166 2.027-11.587 2.027-11.587l5.7 15.669L19.22 4.182s1.97 11.13 2.015 11.432c.207 1.409-.831 2.306-1.967 2.412-.914.083-2.401.076-2.401.076v.68h14.637v-.68s-1.143 0-2.01-.074c-1.47-.124-2.723-1.003-2.918-2.435M150.25 16.145c-.23.434-.506.928-.793 1.322-.535.726-1.34 1.23-2.3 1.23-.928 0-1.712-.488-2.25-1.161-.321-.402-.605-.93-.844-1.391-.966-1.832-1.51-3.918-1.51-6.132 0-2.206.57-4.377 1.5-6.115.253-.473.467-.872.885-1.439.504-.677 1.31-1.118 2.22-1.118.947 0 1.784.538 2.282 1.205.296.395.574.89.804 1.329.966 1.834 1.514 3.923 1.514 6.138 0 2.214-.546 4.3-1.509 6.132M148.596.54c-.471-.052-.952-.078-1.437-.078-.484 0-.96.026-1.432.076-4.87.416-8.692 4.5-8.692 9.477 0 4.703 3.482 8.586 7.792 9.355.757.135 1.538.206 2.332.206.796 0 1.575-.071 2.33-.206 4.315-.746 7.794-4.652 7.794-9.355 0-4.974-3.82-9.057-8.687-9.475" transform="translate(-67 -116) translate(67 116) translate(49.559 7.283)"/></g><g fill="#FFFFFF" transform="translate(-67 -116) translate(67 116)"><g><path fill="#FFFFFF" d="M10.86 12.565c0 3.013-2.636 5.175-6.351 5.175-1.439 0-2.902-.315-3.931-.873-.169-.681-.41-2.09-.578-3.402h.432c1.103 2.283 2.782 3.644 4.483 3.644 1.68 0 2.853-1.215 2.853-2.965 0-1.483-.767-2.406-3.14-3.79C1.248 8.36.168 7.071.168 5.007.169 2.068 2.568 0 5.995 0c1.198 0 2.59.269 3.572.681l.503 3.55h-.335C8.894 2.019 7.336.633 5.707.633c-1.583 0-2.684 1.165-2.684 2.892 0 1.458.67 2.237 3.234 3.693 3.5 1.97 4.603 3.256 4.603 5.347M28.906 13.465c-.36 1.312-.982 2.939-1.391 3.62-.647.146-2.949.656-4.77.656-7.045 0-9.947-4.641-9.947-8.699 0-5.25 3.956-9.04 10.545-9.04 2.014 0 4.028.487 4.7.63.169 1.313.337 2.432.528 3.623h-.48C27.25 1.776 24.877.632 22.91.632c-4.121 0-6.207 3.865-6.207 7.9 0 5.005 2.614 8.578 6.376 8.578 2.183 0 4.053-1.458 5.3-3.645h.526zM36.86 17.036v.364h-6.88v-.364c1.535-.194 1.75-.559 1.75-2.77V3.524c0-2.21-.215-2.577-1.75-2.77V.39h6.88v.364c-1.536.194-1.75.56-1.75 2.77v10.741c0 2.187.239 2.577 1.75 2.77M71.016.755c-1.173.144-1.535.558-1.68 1.896-.096 1.068-.19 3.23-.19 4.81v10.305h-.672L56.537 4.156h-.072v6.173c0 1.823.095 3.791.169 4.593.144 1.506.647 1.969 2.205 2.115v.364h-5.132v-.364c1.273-.244 1.727-.609 1.87-2.26.122-1.532.169-2.723.169-4.448V4.642c0-1.75-.121-2.356-.6-2.94-.36-.462-.838-.753-1.439-.874V.391h3.812l10.789 11.736h.119V7.46c0-1.82-.025-2.793-.169-4.739-.097-1.358-.623-1.797-2.3-1.966V.391h5.058v.364z" transform="translate(53 33.216)"/><path fill="#FFFFFF" d="M52.479 13.489c-.12.656-.503 2.356-.91 3.912H39.176v-.365c1.535-.193 1.748-.558 1.748-2.77V3.526c0-2.213-.213-2.577-1.748-2.771V.39H50.92l.313 3.887h-.36c-.218-.97-.79-2.039-1.366-2.524-.576-.513-1.486-.732-3.093-.732h-1.101c-.865 0-1.01.146-1.01.925v6.537h2.014c2.399 0 2.783-.193 3.19-1.75h.36v4.327h-.36c-.432-1.556-.769-1.752-3.19-1.752h-2.013v4.74c0 2.478.24 2.72 2.685 2.72 2.061 0 2.9-.217 3.547-.923.481-.508 1.128-1.506 1.51-2.356h.432z" transform="translate(53 33.216)"/><path fill="#FFFFFF" d="M87.155 13.465c-.191 1.214-.55 3.16-.767 3.937H71.982v-.244L82.505 1.022h-3.956c-2.996 0-3.571.244-4.028.998-.31.508-.575 1.164-.885 2.283h-.434l.24-3.912h13.281v.241L76.391 16.625c1.054.095 1.992.143 3.74.143 2.326 0 4.387-.168 5.178-.973.551-.533.958-1.214 1.367-2.33h.479zM96.718 10.403L94.56 4.424h-.097c-.429 1.119-1.413 3.668-2.254 5.979h4.509zm7.286 6.632v.365h-6.592v-.365c1.391-.34 1.367-.85.935-2.114l-1.342-3.716h-5.108c-.598 1.652-1.126 3.085-1.268 3.572-.481 1.433-.432 1.87 1.295 2.258v.365h-4.65v-.365c1.267-.266 1.676-.897 2.54-3.012L95.47.341h1.01l5.103 13.514c.839 2.257 1.27 2.889 2.421 3.18z" transform="translate(53 33.216)"/></g></g></g></g></g></symbol><symbol id="foc-social-mail" width="28" height="28" viewBox="0 0 28 28"><path d="m7.28230071 9h13.43539859c.7128523 0 1.2823007.6137802 1.2823007 1.3709164v8.2581671c0 .7559383-.5741056 1.3709165-1.2823007 1.3709165h-13.43539859c-.71285224 0-1.28230071-.6137802-1.28230071-1.3709165v-8.2581671c0-.75593819.57410558-1.3709164 1.28230071-1.3709164zm6.78607539 8.25 5.8484828-5.2359185c.2042465-.182854.2215886-.4966609.0387347-.7009074-.0011632-.0012992-.0023332-.0025923-.00351-.0038792-.1876857-.2052491-.5054641-.221587-.7132095-.0366683l-5.170498 4.6023734-5.17049806-4.6023734c-.20774543-.1849187-.52552377-.1685808-.71320951.0366683-.18499639.202308-.17096253.5162803.03134551.7012767.0012869.0011767.00258.0023467.00387924.0035099z"/></symbol><symbol id="foc-social-fb" width="8" height="15" viewBox="0 0 8 15"><path d="M2.34631712,14.8471536 L2.34631712,8.35225911 L0,8.35225911 L0,5.66489687 L2.34631712,5.66489687 L2.34631712,3.61669811 C2.34631712,1.28747656 3.72604512,0 5.83591168,0 C6.84667287,0 7.90420451,0.18168451 7.90420451,0.18168451 L7.90420451,2.46907941 L6.73884102,2.46907941 C5.59166604,2.46907941 5.23309266,3.18536079 5.23309266,3.92124841 L5.23309266,5.66489687 L7.79507348,5.66489687 L7.38583212,8.35225911 L5.23309266,8.35225911 L5.23309266,14.8471536 L2.34631712,14.8471536 Z" id="Path" fill="#FFFFFF" fill-rule="nonzero"></path></symbol><symbol id="foc-social-fb-bg" width="40" height="40" viewBox="0 0 40 40"><path d="M39.536 20.048c0 9.697-7.104 17.735-16.392 19.192V25.664h4.527l.861-5.616h-5.388v-3.644c0-1.537.752-3.034 3.166-3.034h2.45V8.589s-2.224-.38-4.35-.38c-4.437 0-7.337 2.69-7.337 7.559v4.28H12.14v5.616h4.933V39.24C7.785 37.783.68 29.745.68 20.048.68 9.318 9.378.62 20.108.62s19.428 8.698 19.428 19.428"/></symbol><symbol id="foc-social-tw" width="56" height="46" viewBox="0 0 56 46"><path d="M17.5350675,45.3142204 C38.5763457,45.3142204 50.082988,27.8824145 50.082988,12.766523 C50.082988,12.2714026 50.0727287,11.7782894 50.0499799,11.2878526 C52.2835973,9.67313571 54.2252721,7.65853101 55.7567999,5.36469626 C53.70718,6.27531632 51.501441,6.88886414 49.1875338,7.16541787 C51.5491688,5.74964121 53.3626029,3.50866391 54.2176892,0.837690162 C52.0068206,2.14797496 49.5597662,3.10119321 46.9539164,3.61415577 C44.8666048,1.39102064 41.8936522,0 38.604001,0 C32.2860865,0 27.1629287,5.12338083 27.1629287,11.438619 C27.1629287,12.3365265 27.263514,13.209455 27.4597779,14.0469221 C17.9525744,13.5689748 9.52214629,9.01676666 3.88067327,2.09534054 C2.89734635,3.78544066 2.33152635,5.74964121 2.33152635,7.84475872 C2.33152635,11.8135277 4.35126067,15.317062 7.42189915,17.366459 C5.54579435,17.3089179 3.78276433,16.7932791 2.2409773,15.9355164 C2.238524,15.9832443 2.238524,16.0311951 2.238524,16.0815993 C2.238524,21.622264 6.18209095,26.2474021 11.4158702,27.296299 C10.4552921,27.5579099 9.4443098,27.6988631 8.40031948,27.6988631 C7.66343761,27.6988631 6.94662819,27.6257101 6.24989122,27.4923399 C7.70625883,32.0371882 11.9290558,35.3444585 16.9364625,35.4376839 C13.0205509,38.5060921 8.08852745,40.3344691 2.72873779,40.3344691 C1.80585124,40.3344691 0.895454207,40.2816116 0,40.1761198 C5.06294046,43.4204964 11.0739695,45.3142204 17.5350675,45.3142204" id="Fill-1"></path></symbol><symbol id="foc-social-wa" width="24" height="24" viewBox="0 0 24 24"><path d="M.057 24l1.687-6.163c-1.041-1.804-1.588-3.849-1.587-5.946.003-6.556 5.338-11.891 11.893-11.891 3.181.001 6.167 1.24 8.413 3.488 2.245 2.248 3.481 5.236 3.48 8.414-.003 6.557-5.338 11.892-11.893 11.892-1.99-.001-3.951-.5-5.688-1.448l-6.305 1.654zm6.597-3.807c1.676.995 3.276 1.591 5.392 1.592 5.448 0 9.886-4.434 9.889-9.885.002-5.462-4.415-9.89-9.881-9.892-5.452 0-9.887 4.434-9.889 9.884-.001 2.225.651 3.891 1.746 5.634l-.999 3.648 3.742-.981zm11.387-5.464c-.074-.124-.272-.198-.57-.347-.297-.149-1.758-.868-2.031-.967-.272-.099-.47-.149-.669.149-.198.297-.768.967-.941 1.165-.173.198-.347.223-.644.074-.297-.149-1.255-.462-2.39-1.475-.883-.788-1.48-1.761-1.653-2.059-.173-.297-.018-.458.13-.606.134-.133.297-.347.446-.521.151-.172.2-.296.3-.495.099-.198.05-.372-.025-.521-.075-.148-.669-1.611-.916-2.206-.242-.579-.487-.501-.669-.51l-.57-.01c-.198 0-.52.074-.792.372s-1.04 1.016-1.04 2.479 1.065 2.876 1.213 3.074c.149.198 2.095 3.2 5.076 4.487.709.306 1.263.489 1.694.626.712.226 1.36.194 1.872.118.571-.085 1.758-.719 2.006-1.413.248-.695.248-1.29.173-1.414z"/></symbol><symbol id="foc-social-pt" width="16" height="20" viewBox="0 0 16 20"><g stroke-width="1" fill-rule="evenodd"><path d="M3.26309869,19.226014 C3.22969757,18.3760748 3.25712802,17.355793 3.46973565,16.4310627 C3.69791892,15.4428975 4.99727426,9.79869828 4.99727426,9.79869828 C4.99727426,9.79869828 4.61792065,9.02159838 4.61792065,7.87284973 C4.61792065,6.06916884 5.63769307,4.7220419 6.90745468,4.7220419 C7.98727989,4.7220419  8.50897763,5.55361597 8.50897763,6.54932235 C8.50897763,7.66231678 7.81663999,9.3270619 7.46056332,10.8689296 C7.16315493,12.1600741 8.09198287,13.2131824 9.33431402,13.2131824 C11.5835244,13.2131824 13.0984295,10.2512598 13.0984295,6.7418451 C13.0984295,4.07420727 11.3459958,2.07747131 8.15869857,2.07747131 C4.55760827,2.07747131 2.31419547,4.83090154 2.31419547,7.90647467 C2.31419547,8.96685804 2.61913209,9.71476901 3.09678536,10.2937568 C3.31640202,10.5597398 3.34694761,10.6668251 3.26742526,10.9721999 C3.2104876,11.1961296 3.07973868,11.735282 3.02557003,11.9490088 C2.94648034,12.2572227 2.70289447,12.3674131 2.43118591,12.2535852 C0.772552243,11.5593499 0,9.69702498 0,7.60349532 C0,4.14598189 2.8441137,0 8.48448925,0 C13.0169169,0 16,3.3627603 16,6.97251752 C16,11.7472592 13.4109808,15.3144307 9.59460044,15.3144307 C8.3128975,15.3144307 7.10725566,14.6040484 6.69432787,13.797316 C6.69432787,13.797316 6.00510535,16.6016716 5.8591269,17.1432194 C5.60749362,18.0817013 5.11478389,19.0195621 4.66430148,19.7506163 C4.2453753,20.2575536 3.26309869,19.9461666 3.26309869,19.226014 Z"></path></g></symbol><symbol id="foc-social-pt-bg" width="40" height="40" viewBox="0 0 40 40"><path d="M19.775.62C8.997.62.26 9.357.26 20.135c0 8.267 5.144 15.335 12.403 18.178-.17-1.544-.324-3.918.068-5.604.355-1.523 2.288-9.7 2.288-9.7s-.583-1.169-.583-2.897c0-2.714 1.572-4.74 3.53-4.74 1.665 0 2.47 1.25 2.47 2.75 0 1.674-1.066 4.177-1.616 6.497-.46 1.942.974 3.526 2.89 3.526 3.468 0 6.134-3.657 6.134-8.936 0-4.673-3.357-7.94-8.152-7.94-5.552 0-8.811 4.165-8.811 8.47 0 1.677.646 3.475 1.452 4.453.16.193.183.362.135.56-.148.616-.477 1.941-.542 2.213-.085.357-.282.433-.652.26-2.438-1.134-3.961-4.697-3.961-7.56 0-6.156 4.472-11.809 12.894-11.809 6.77 0 12.03 4.824 12.03 11.271 0 6.726-4.24 12.138-10.126 12.138-1.978 0-3.837-1.027-4.473-2.24 0 0-.978 3.725-1.216 4.639-.44 1.695-1.63 3.82-2.425 5.116a19.51 19.51 0 0 0 5.778.87c10.778 0 19.515-8.737 19.515-19.515S30.553.62 19.775.62"/></symbol><symbol id="foc-social-in" width="41" height="39" viewBox="0 0 41 39"><path d="M21.213809,0.000675922303 C23.7618213,0.00427356755 24.9232195,0.0179182794 25.9740009,0.0521395921 L26.2247179,0.0607531691 C26.2663678,0.0622564074 26.3080041,0.063793916 26.3497084,0.0653663689 L26.6014036,0.0752258082 C26.8975245,0.0872302858 27.2049807,0.101013072 27.5517828,0.116805311 C29.6282589,0.211326887 31.0464176,0.540490738 32.2873162,1.02183201 C33.5701872,1.51932619 34.6581417,2.18507341 35.7427663,3.26747297 C36.8273135,4.34994982 37.4943817,5.43574999 37.9929404,6.71608067 C38.4751592,7.95452198 38.8049762,9.36987244 38.8996853,11.4422367 C38.9833242,13.2717038 39.01071,14.0040693 39.0160451,17.767713 L39.0169262,18.7451786 C39.0170334,18.9766566 39.0170844,19.2179695 39.0170844,19.4697694 L39.0170455,19.8396802 C39.0170193,19.9604164 39.0169798,20.0786124 39.0169262,20.1943497 L39.0160451,21.1718014 C39.01071,24.9353922 38.9833242,25.6677578 38.8996853,27.4972248 C38.8049762,29.5695891 38.4751592,30.9849396 37.9929404,32.2233809 C37.4943817,33.5037116 36.8273135,34.5895117 35.7427663,35.6719886 C34.6581417,36.7543881 33.5701872,37.4201354 32.2873162,37.9177068 C31.0464176,38.3989708 29.6282589,38.7281347 27.5517828,38.8226562 C27.2049807,38.8384485 26.8975245,38.8522313 26.6014036,38.8642357 L26.3497084,38.8740952 C25.1402835,38.9196963 23.9880504,38.9359093 20.9013101,38.9391698 L18.1154697,38.9391698 C15.0286856,38.9359093 13.8764421,38.9196963 12.6670147,38.8740952 L12.4153191,38.8642357 C12.1191979,38.8522313 11.8117417,38.8384485 11.4649396,38.8226562 C9.38846346,38.7281347 7.97030476,38.3989708 6.72940623,37.9177068 C5.44653521,37.4201354 4.35858067,36.7543881 3.27395605,35.6719886 C2.18940887,34.5895117 1.52234072,33.5037116 1.02385945,32.2233809 C0.54156314,30.9849396 0.211746186,29.5695891 0.117037068,27.4972248 C0.0989529845,27.1016644 0.0834987001,26.7573928 0.0703284985,26.4226811 L0.0608737111,26.1727877 L0.0608737111,26.1727877 L0.0522430437,25.9225672 C0.0179538315,24.8738666 0.00428204685,23.7147682 0.000677263419,21.1718014 L0.000677263419,17.767713 C0.00428204685,15.2247105 0.0179538315,14.0656005 0.0522430437,13.0168962 L0.0608737111,12.7666749 L0.0608737111,12.7666749 L0.0703284985,12.516781 C0.0834987001,12.1820687 0.0989529845,11.8377972 0.117037068,11.4422367 C0.211746186,9.36987244 0.54156314,7.95452198 1.02385945,6.71608067 C1.52234072,5.43574999 2.18940887,4.34994982 3.27395605,3.26747297 C4.35858067,2.18507341 5.44653521,1.51932619 6.72940623,1.02183201 C7.97030476,0.540490738 9.38846346,0.211326887 11.4649396,0.116805311 C11.8117417,0.101013072 12.1191979,0.0872302858 12.4153191,0.0752258082 L12.6670147,0.0653663689 C12.7087191,0.063793916 12.7503555,0.0622564074 12.7920056,0.0607531691 L13.0427233,0.0521395921 C14.0935085,0.0179182794 15.2549183,0.00427356755 17.8029664,0.000675922303 Z M20.2386128,3.50790522 L18.7781763,3.50790522 C18.6617024,3.50795562 18.5477852,3.50801939 18.4363372,3.50809733 L17.7965788,3.50874121 C14.127406,3.51369941 13.4314112,3.53904318 11.6251629,3.62129126 C9.72308169,3.70785231 8.69010955,4.02503673 8.00267468,4.29167568 C7.09205774,4.64487568 6.44218127,5.06678351 5.75954768,5.74814264 C5.07683666,6.42942448 4.6540917,7.07801406 4.30019091,7.9868278 C4.03302292,8.67290141 3.71520916,9.70382806 3.62847636,11.6021428 C3.61474115,11.9025881 3.60258975,12.172254 3.59185276,12.430008 L3.58158096,12.6844901 C3.53578754,13.8600657 3.51956703,14.9131881 3.515703,17.761338 L3.51505785,18.3998296 C3.51497975,18.5110569 3.51491585,18.6247485 3.51486535,18.7409917 L3.51486535,20.1985363 C3.51491585,20.3147779 3.51497975,20.4284678 3.51505785,20.5396935 L3.515703,21.1781759 C3.52067104,24.8400306 3.54606509,25.5346472 3.62847636,27.3373187 C3.71520916,29.2356335 4.03302292,30.2665601 4.30019091,30.9526337 C4.6540917,31.8614475 5.0769141,32.5100371 5.75954768,33.1913189 C6.44218127,33.872678 7.09205774,34.2945859 8.00267468,34.6477859 C8.69010955,34.9144248 9.72308169,35.2316092 11.6251629,35.3181703 C12.1268419,35.341017 12.5428578,35.3594729 12.9607394,35.3743208 L13.2123925,35.3828028 C14.2677152,35.4163927 15.4441098,35.4284108 18.1092148,35.4310871 L20.9075665,35.4310871 C23.5726409,35.4284108 24.7490513,35.4163927 25.8043658,35.3828028 L26.0560165,35.3743208 C26.0978042,35.372836 26.1395731,35.3713151 26.1814109,35.3697574 L26.4339636,35.3599624 C26.7312057,35.3480042 27.0403974,35.334163 27.3915594,35.3181703 C29.2936407,35.2316092 30.3266128,34.9144248 31.0140477,34.6477859 C31.9246646,34.2945859 32.5745411,33.872678 33.2571747,33.1913189 C33.9398857,32.5100371 34.3626307,31.8614475 34.7165315,30.9526337 C34.9836995,30.2665601 35.3015132,29.2356335 35.388246,27.3373187 C35.4706573,25.5346472 35.4960513,24.8400306 35.5010194,21.1781759 L35.5019691,19.8420696 L35.5019691,19.8420696 L35.5020054,19.4697694 C35.5020054,19.3429703 35.5019935,19.2188975 35.5019691,19.0974637 L35.5010194,17.761338 C35.4960513,14.099431 35.4706573,13.4048144 35.388246,11.6021428 C35.3015132,9.70382806 34.9836995,8.67290141 34.7165315,7.9868278 C34.3626307,7.07801406 33.9398857,6.42942448 33.2571747,5.74814264 C32.5745411,5.06678351 31.9246646,4.64487568 31.0140477,4.29167568 C30.3266128,4.02503673 29.2936407,3.70785231 27.3915594,3.62129126 C27.0403445,3.60529858 26.7311067,3.59145737 26.4338264,3.57949917 L26.181243,3.56970416 C25.0514934,3.5276454 23.9720363,3.51245986 21.220196,3.50874121 L20.5804469,3.50809733 C20.4690005,3.50801939 20.355085,3.50795562 20.2386128,3.50790522 Z M19.5083999,9.47158167 C25.041178,9.47158167 29.5263479,13.94787 29.5263479,19.4697694 C29.5263479,24.9915916 25.041178,29.4678799 19.5083999,29.4678799 C13.9755443,29.4678799 9.4903745,24.9915916 9.4903745,19.4697694 C9.4903745,13.94787 13.9755443,9.47158167 19.5083999,9.47158167 Z M19.5083999,12.9797001 C15.9168877,12.9797001 13.0054535,15.8853691 13.0054535,19.4697694 C13.0054535,23.0540925 15.9168877,25.9597614 19.5083999,25.9597614 C23.0998347,25.9597614 26.0112689,23.0540925 26.0112689,19.4697694 C26.0112689,15.8853691 23.0998347,12.9797001 19.5083999,12.9797001 Z M29.9221437,6.74011682 C31.2150819,6.74011682 32.2632323,7.78619165 32.2632323,9.0765696 C32.2632323,10.3669475 31.2150819,11.4129451 29.9221437,11.4129451 C28.6292829,11.4129451 27.5811326,10.3669475 27.5811326,9.0765696 C27.5811326,7.78619165 28.6292829,6.74011682 29.9221437,6.74011682 Z" id="Combined-Shape"></path></symbol><symbol id="foc-social-fm" width="27" height="13" viewBox="0 0 27 13"><path d="M15.703 12.123L10.382 6.45 0 12.123 11.42 0l5.45 5.675L27.124 0z" fill-rule="evenodd"/></symbol><symbol id="foc-social-yt" width="50" height="36" viewBox="0 0 50 36"><path d="M48.566 6.197C49.6 10.06 49.6 18.126 49.6 18.126s0 8.064-1.034 11.929a6.202 6.202 0 0 1-4.375 4.382c-3.859 1.035-19.332 1.035-19.332 1.035s-15.473 0-19.332-1.035a6.203 6.203 0 0 1-4.375-4.382C.12 26.19.12 18.125.12 18.125s0-8.064 1.033-11.928a6.202 6.202 0 0 1 4.375-4.382C9.386.779 24.86.779 24.86.779s15.473 0 19.332 1.036a6.201 6.201 0 0 1 4.375 4.382m-28.768 19.26l12.933-7.326-12.933-7.327z"/></symbol><symbol id="foc-social-android" width="64" height="64" viewBox="0 0 64 64"><path d="M28.519 10.5c-1.21 0-2.269.45-3.025 1.2L14.756 5.55c.151-.3.151-.75.151-1.05 0-2.55-1.966-4.5-4.537-4.5C7.8 0 5.833 1.95 5.833 4.5S7.8 9 10.37 9c1.21 0 2.269-.45 3.025-1.2l10.738 6.15c-.152.3-.152.75-.152 1.05 0 .3 0 .75.152 1.05l-10.738 6.3c-.756-.75-1.815-1.2-3.025-1.2-2.42 0-4.385 1.95-4.385 4.35 0 2.4 1.966 4.35 4.385 4.35 2.42 0 4.386-1.95 4.386-4.35 0-.3 0-.6-.151-1.05l10.738-6.3c.756.75 1.814 1.2 3.024 1.2 2.571 0 4.537-1.95 4.537-4.5S31.09 10.5 28.52 10.5z" transform=" translate(-6 1) scale(2)"/></symbol><symbol id="foc-social-ios" width="64" height="64" viewBox="0 0 64 64"><path d="M8.192 21.571L2.43 15.536 8.19 9.5l1.614 1.69-2.996 3.139h13.122v2.414H6.809l2.996 3.138-1.613 1.69zM30.625 3.5H14.462c-1.27 0-2.31 1.2-2.31 2.667V11.5h2.31V6.167H30.26v18.666H14.462V19.5h-2.31v5.333c0 1.467 1.04 2.667 2.31 2.667H30.26c1.27 0 2.31-1.2 2.31-2.667V6.167c0-1.467-1.04-2.667-2.31-2.667h.365z" transform="translate(-3 1) scale(2) rotate(90 17.5 15.5)"/></symbol><symbol id="foc-search" width="44" height="43" viewBox="0 0 44 43"><g stroke-width="2" fill-rule="evenodd"><path d="M1,9.5 C1,4.80557143 4.81528571,1 9.5,1 C14.1944286,1 18,4.81528571 18,9.5 C18,14.1944286 14.1847143,18 9.5,18 C4.80557143,18 1,14.1847143 1,9.5 Z"></path><path d="M16,16 L21,21" stroke-linecap="square" stroke-linejoin="square"></path></g></symbol><symbol id="foc-search" width="22" height="22" viewBox="0 0 22 22"><g stroke-width="2" fill-rule="evenodd"><path d="M1,9.5 C1,4.80557143 4.81528571,1 9.5,1 C14.1944286,1 18,4.81528571 18,9.5 C18,14.1944286 14.1847143,18 9.5,18 C4.80557143,18 1,14.1847143 1,9.5 Z"></path><path d="M16,16 L21,21" stroke-linecap="square" stroke-linejoin="square"></path></g></symbol><symbol id="foc-login" width="30" height="30" viewBox="0 0 30 30"><g stroke-width="2" fill-rule="evenodd"><path d="M9.5 10.5C9.5 7.463 11.97 5 15 5c3.038 0 5.5 2.47 5.5 5.5 0 3.037-2.47 5.5-5.5 5.5-3.038 0-5.5-2.47-5.5-5.5z"/><path d="M4.55 25.9s2.356-5.5 5.573-5.5c1.038 0 3.083.917 4.645.917 1.298 0 2.957-.917 4.644-.917 3.716 0 6.038 5.5 6.038 5.5" stroke-linecap="square"/></g></symbol><symbol id="foc-camera" width="17" height="16" viewBox="0 0 17 16"><g fill="none"><g fill="#FFF"><path d="M6 0.5L4.4 2.2 1.7 2.2C0.8 2.2 0 2.9 0 3.9L0 14C0 14.9 0.8 15.7 1.7 15.7L15.4 15.7C16.3 15.7 17.1 14.9 17.1 14L17.1 3.9C17.1 2.9 16.3 2.2 15.4 2.2L12.7 2.2 11.1 0.5 6 0.5 6 0.5ZM8.6 13.8C5.8 13.8 3.7 11.6 3.7 8.9 3.7 6.2 5.8 4.1 8.6 4.1 11.3 4.1 13.4 6.2 13.4 8.9 13.4 11.6 11.3 13.8 8.6 13.8L8.6 13.8ZM8.6 12C6.8 12 5.5 10.7 5.5 8.9 5.5 7.2 6.8 5.9 8.6 5.9 10.3 5.9 11.7 7.2 11.7 8.9 11.7 10.7 10.3 12 8.6 12L8.6 12Z"/></g></g></symbol><symbol id="foc-play" width="17" height="22" viewBox="0 0 17 22"><g fill="none"><g fill="#FFF"><path d="M1.4 21.3L16.4 11.6C16.7 11.4 16.8 10.9 16.6 10.6 16.6 10.5 16.5 10.5 16.4 10.4L1.4 0.7C1.1 0.5 0.6 0.6 0.4 0.9 0.4 1 0.3 1.2 0.3 1.3L0.3 20.7C0.3 21.1 0.6 21.4 1 21.4 1.2 21.4 1.3 21.4 1.4 21.3Z"/></g></g></symbol><symbol id="foc-zoom" width="17" height="18" viewBox="0 0 17 18"><g id="Page-1" stroke="none" stroke-width="1" fill="none" fill-rule="evenodd"><g id="FRECCIA" transform="translate(1.000000, 0.000000)" fill="#FFFFFF"><path d="M5.96331522,0 L5.96331522,2.2826087 L1.08376087,2.282 L1.08423913,7.41847826 L-1.08423913,7.41847826 L-1.08423913,0 L5.96331522,0 Z" id="Combined-Shape"></path><path d="M5.96331522,10.8423913 L5.96331522,13.125 L1.08376087,13.1243913 L1.08423913,18.2608696 L-1.08423913,18.2608696 L-1.08423913,10.8423913 L5.96331522,10.8423913 Z" id="Combined-Shape-Copy-2" transform="translate(2.439538, 14.551630) scale(1, -1) translate(-2.439538, -14.551630) "></path><path d="M16.263587,0 L16.263587,2.2826087 L11.3840326,2.282 L11.3845109,7.41847826 L9.21603261,7.41847826 L9.21603261,0 L16.263587,0 Z" id="Combined-Shape-Copy" transform="translate(12.739810, 3.709239) scale(-1, 1) translate(-12.739810, -3.709239) "></path><path d="M16.263587,10.8423913 L16.263587,13.125 L11.3840326,13.1243913 L11.3845109,18.2608696 L9.21603261,18.2608696 L9.21603261,10.8423913 L16.263587,10.8423913 Z" id="Combined-Shape-Copy-3" transform="translate(12.739810, 14.551630) scale(-1, -1) translate(-12.739810, -14.551630) "></path></g></g></symbol><symbol id="foc-articles" width="30px" height="27px" viewBox="0 0 30 27"><g stroke="none" stroke-width="1" fill="none" fill-rule="evenodd"><path d="M30,24 L30,27 L-1.98023985e-15,27 L-1.98023985e-15,24 L30,24 Z M30,16 L30,19 L-1.98023985e-15,19 L-1.98023985e-15,16 L30,16 Z M30,8 L30,11 L-1.98023985e-15,11 L-1.98023985e-15,8 L30,8 Z M18,1.33226763e-15 L18,3 L6.1272078e-13,3 L6.1272078e-13,1.33226763e-15 L18,1.33226763e-15 Z" id="Combined-Shape" fill="#FFFFFF"></path></g></symbol><symbol id="foc-arrow-right" width="21px" height="14px" viewBox="0 0 21 14"><polygon points="14.1111111 0 12.9055556 1.225 17.7277778 6.125 -9.08106923e-13 6.125 -9.08106923e-13 7.875 17.7277778 7.875 12.9055556 12.775 14.1111111 14 21 7"></polygon></symbol><symbol id="foc-arrow" width="34px" height="25px" viewBox="0 0 34 25"><g stroke="none" stroke-width="1" fill="none" fill-rule="evenodd"><g transform="translate(4.000000, -4.000000)" fill="#FFFFFF"><polygon points="17.5343915 4 15.3529101 6.1875 24.078836 14.9375 -4 14.9375 -4 18.0625 24.078836 18.0625 15.3529101 26.8125 17.5343915 29 30 16.5"></polygon></g></g></symbol><symbol id="foc-share-ios-white" width="25px" height="31px" viewBox="0 0 25 31"><g stroke="none" stroke-width="1" fill="none" fill-rule="evenodd"><g transform="translate(-20.000000, -18.000000)" fill="#FFFFFF"><g transform="translate(15.000000, 18.000000)"><path d="M8.19187243,21.5712891 L2.43055556,15.5356445 L8.19187243,9.5 L9.80504115,11.1899805 L6.80915638,14.3285156 L19.9305556,14.3285156 L19.9305556,16.7427734 L6.80915638,16.7427734 L9.80504115,19.8813086 L8.19187243,21.5712891 Z M30.625,3.5 L14.4618056,3.5 C13.1918403,3.5 12.1527778,4.7 12.1527778,6.16666667 L12.1527778,11.5 L14.4618056,11.5 L14.4618056,6.16666667 L30.2604167,6.16666667 L30.2604167,24.8333333 L14.4618056,24.8333333 L14.4618056,19.5 L12.1527778,19.5 L12.1527778,24.8333333 C12.1527778,26.3 13.1918403,27.5 14.4618056,27.5 L30.2604167,27.5 C31.5303819,27.5 32.5694444,26.3 32.5694444,24.8333333 L32.5694444,6.16666667 C32.5694444,4.7 31.5303819,3.5 30.2604167,3.5 L30.625,3.5 Z" id="Shape" transform="translate(17.500000, 15.500000) rotate(90.000000) translate(-17.500000, -15.500000) "></path></g></g></g></symbol></svg>